<?xml version="1.0" encoding="utf-8"?>
<!-- Generator: Adobe Illustrator 25.4.1, SVG Export Plug-In . SVG Version: 6.00 Build 0)  -->
<svg version="1.1" id="Capa_1" xmlns="http://www.w3.org/2000/svg" xmlns:xlink="http://www.w3.org/1999/xlink" x="0px" y="0px"
	 viewBox="0 0 1080 274" style="enable-background:new 0 0 1080 274;" xml:space="preserve">
<style type="text/css">
	.st0{fill:#FFFFFF;}
	.st1{opacity:0.5;}
</style>
<path class="st0" d="M1005.9,58.7c0-9.9,7.2-16.8,17-16.8c10,0,17.2,6.9,17.2,16.8s-7.2,16.7-17.2,16.7
	C1013.1,75.4,1005.9,68.5,1005.9,58.7z M1037,58.7c0-8.3-5.9-14.1-14.1-14.1c-8.1,0-14,5.9-14,14.1s5.9,14,14,14
	C1031.1,72.7,1037,66.9,1037,58.7L1037,58.7z M1027.4,67.5c-1.9-1.8-0.4-7.4-4.8-7.4h-2.5v7.4h-3.6v-18h7.5c3.4,0,6.5,1.2,6.5,5
	c0,2.2-1.7,4.3-5.2,4.4c5.9,0.2,3.6,6.1,6,8.5L1027.4,67.5z M1022.8,52.1h-2.8v5.4h2.8c1.8,0,3.9-0.3,3.9-2.8
	C1026.8,52.4,1024.8,52.1,1022.8,52.1L1022.8,52.1z"/>
<path class="st0" d="M465.3,41c0.5-0.1,1.1-0.1,1.7-0.1h75.5c0.5,0,1.1,0.1,1.8,0.1v210.4h-79V41L465.3,41z"/>
<path class="st0" d="M641.6,117.4v133.8h-67.1V41c0.8-0.1,1.7-0.1,2.5-0.1c38.4,0,76.7,0,115-0.1c2.1,0,2.8,0.8,3.3,2.6
	c6.1,20.6,12.3,41.1,18.5,61.6c0.3,0.8,0.5,1.4,1,2.7c2.3-7.1,4.3-13.7,6.4-20.3c4.7-14.8,9.3-29.6,13.9-44.4
	c0.5-1.6,1.2-2.2,2.9-2.2c40,0.1,80.2,0.1,120.2,0.1c0.7,0,1.3,0.1,2.2,0.1v210.3h-76.6V119.4l-0.4-0.1c-0.3,0.8-0.6,1.5-0.8,2.3
	c-12.3,42.3-24.6,84.7-36.8,127c-0.7,2.3-1.6,2.8-3.8,2.8c-18.6-0.1-37.2-0.1-55.8,0c-2.1,0-2.9-0.5-3.6-2.5
	c-13.3-43.3-26.6-86.6-40-129.9c-0.2-0.5-0.3-1-0.5-1.5L641.6,117.4z"/>
<path class="st0" d="M987.8,41.1H910v3c0,38,0,75.9,0,113.9c0,2.3-0.1,4.7-0.3,7c-1,11-8.8,19.1-18.8,20.3v65.6
	c15,0.4,30-0.7,44.6-5.4c21.7-6.9,37.2-20.6,45.5-42c4.7-12.4,7-25.5,6.9-38.6c0.1-40.7,0.1-81.4,0.1-122.1
	C988,42.3,987.8,41.7,987.8,41.1z"/>
<g class="st1">
	<path class="st0" d="M344.4,148.3v-35.1h12.7c7.1,0,12.3,2.3,12.3,9.2c0.1,4.3-3.3,7.8-7.5,8c5.5,0.2,8.6,2.9,8.6,7.9
		c0,7.1-4.7,10-12.3,10L344.4,148.3z M364.4,122.6c0-3.9-2.7-5.5-7.2-5.5H349v11.4h8.2C361.6,128.4,364.4,126.8,364.4,122.6
		L364.4,122.6z M365.5,138.3c0-4.1-2.5-5.9-7.6-5.9H349v11.9h8.9C362.3,144.3,365.5,143.1,365.5,138.3L365.5,138.3z"/>
	<path class="st0" d="M377.1,154.5c0.8,0.3,1.7,0.4,2.6,0.4c2,0,3.2-1,4.1-3.2l1.3-3.5l-9.9-26.7h4.6l7.6,21.4l7.3-21.4h4.5
		l-11.5,31.1c-1.6,4.2-3.5,5.8-7.1,5.8c-1.5,0-3.1-0.3-4.4-1L377.1,154.5z"/>
</g>
<path class="st0" d="M274.3,78l-51.1-51.1c-22.6-22.7-59.4-22.7-82,0l-33.9,33.9l50,50l-16.5,16.5l-50-50l-33.9,34
	c-22.7,22.6-22.7,59.3,0,82l51.1,51c22.6,22.7,59.3,22.7,82,0l33.9-33.9l-50-50l16.5-16.5l50,50l33.9-33.9
	C296.9,137.3,296.9,100.7,274.3,78z M90.4,198.3c-4.5-0.8-8.9-2.3-13-4.5c-4.1-2.1-8.1-4.9-11.6-8.4c-18.3-18.4-18.3-48,0-66.4
	l25.1-25.1l16.5,16.5l-24.9,24.9c-9.2,9.3-9.4,24.5-0.1,33.7c3.9,3.9,9,6.1,14.1,6.6C93.1,182.7,91,190.4,90.4,198.3z M132.2,185.4
	c-4.5,4.6-6.9,10.6-6.9,16.6c0,6.1,2.3,12.2,7.1,16.9c9.3,9,24.3,8.8,33.4-0.4l24.9-24.9l16.4,16.5L182,235.2
	c-9.2,9.2-21.2,13.7-33.2,13.7s-24-4.5-33.1-13.7c-10-10-14.5-23.3-13.7-36.2c0.7-11,5.3-21.8,13.7-30.1l25.1-25.1l58.1-58.1
	c6.1-6.1,8.2-14.8,6.1-22.7c-0.5-1.9-1.3-3.9-2.3-5.7s-2.3-3.5-3.8-5c-9.2-9.2-24.1-9.2-33.3,0l-25.1,25.1L124,60.9l25.1-25.1
	c9.2-9.2,21.2-13.7,33.1-13.7c12,0,24.1,4.5,33.2,13.7c2.9,2.9,5.3,6.1,7.3,9.6c2.1,3.7,3.7,7.6,4.8,11.6
	c4.1,15.6,0.1,32.9-12.2,45.2l-25.1,25.1L132.2,185.4z M255,148.5l-18,18l-18.5-18.6c-13-14.6-3.5-40.2,18.5-40.2
	C259.1,107.7,268.5,134,255,148.5z"/>
<path class="st0" d="M236.9,142.3c-6.4,0-11.6-5.1-11.6-11.5s5.1-11.6,11.6-11.6c6.3,0,11.5,5.1,11.5,11.6
	C248.4,137.2,243.3,142.3,236.9,142.3z"/>
</svg>
