<svg id="Capa_1" data-name="Capa 1" xmlns="http://www.w3.org/2000/svg" viewBox="0 0 300 100"><defs><style>.cls-1{fill:#525252;}.cls-2{fill:#fcb23b;}.cls-3{fill:none;stroke:#525252;stroke-linecap:round;stroke-miterlimit:10;}</style></defs><path class="cls-1" d="M77.38,46.84a4.12,4.12,0,1,1-4.12-4.12A4.12,4.12,0,0,1,77.38,46.84Z"/><path class="cls-2" d="M56.84,47.26l-.09.08-.07-.06Z"/><path class="cls-2" d="M47.2,52.13h-.05v-.05Z"/><path class="cls-2" d="M61.6,71.28l-.05,0s0-.06,0-.09Z"/><rect class="cls-2" x="47.17" y="52.07" height="0.07"/><path class="cls-2" d="M47.21,56.89l-.06.06v-.11Z"/><path class="cls-2" d="M42.45,52.13h-.09l0,0Z"/><path class="cls-1" d="M81.11,20.44H63.39L64,21a13.31,13.31,0,0,1,2.09,2.7A13,13,0,0,1,67.46,27,13.52,13.52,0,0,1,64,40.12l-7.13,7.14-.09.08L52,42.55l7.73-7.73a6.77,6.77,0,0,0-.48-9.06,6.67,6.67,0,0,0-3-1.76,6.76,6.76,0,0,0-6,1.28l-25,25a6.76,6.76,0,0,0-1.28,6,6.67,6.67,0,0,0,1.76,3,6.82,6.82,0,0,0,3,1.76,6.91,6.91,0,0,0,1,.19,17,17,0,0,0-1.22,3.2,16,16,0,0,0-.41,2c-.06.45-.11.91-.14,1.37-.34-.06-.67-.14-1-.23a13.31,13.31,0,0,1-3.34-1.4,13,13,0,0,1-2.7-2.09,13.73,13.73,0,0,1-2.1-2.7A13.19,13.19,0,0,1,17.39,58,13.52,13.52,0,0,1,20.88,45L37.61,28.21l.09-.09L44.84,21c.18-.19.38-.37.57-.55H25.11l7.76,7.77L28.07,33,16,20.89A4.55,4.55,0,0,0,13.35,25V74.47A4.55,4.55,0,0,0,17.9,79H35.8c-.2-.17-.39-.36-.58-.55a13.31,13.31,0,0,1-3.51-6.08c-.09-.34-.17-.69-.23-1a13.46,13.46,0,0,1-.2-3.35,13.54,13.54,0,0,1,3.54-8.31l.4-.42,7.14-7.14,0,0,0,0,4.71,4.71.05,0L40,64.08a6.84,6.84,0,0,0-2,5.51,8.35,8.35,0,0,0,.18,1A6.62,6.62,0,0,0,40,73.7a6.71,6.71,0,0,0,3.08,1.76,6.8,6.8,0,0,0,6.54-1.79L66.34,56.94l4.8,4.79L61.6,71.28l-.05,0L54.4,78.47a7.68,7.68,0,0,1-.59.55H74.09l-7.75-7.74,4.8-4.8,12,12a4.52,4.52,0,0,0,2.48-4V25A4.55,4.55,0,0,0,81.11,20.44ZM56.8,61.73l-9.6-9.6h0a.06.06,0,0,1,0,0l-9.54-9.53,4.8-4.8L61.6,56.94Zm22.91-8.59-6.45,6.45L66.65,53a8.8,8.8,0,0,1,.23-11.65,8.42,8.42,0,0,1,6.38-2.74C81.2,38.58,84.56,48,79.71,53.14Z"/><path class="cls-2" d="M73.26,38.58a8.42,8.42,0,0,0-6.38,2.74A8.8,8.8,0,0,0,66.65,53l6.61,6.62,6.45-6.45C84.56,48,81.2,38.58,73.26,38.58Zm0,12.38a4.12,4.12,0,1,1,4.12-4.12A4.13,4.13,0,0,1,73.26,51Z"/><path class="cls-1" d="M277,25.44a4.81,4.81,0,0,1,9.61,0,4.81,4.81,0,0,1-9.61,0Zm8.74,0a3.95,3.95,0,1,0-7.89,0,3.95,3.95,0,1,0,7.89,0Zm-2.69,2.49c-.55-.48-.12-2.06-1.36-2.06H281v2.06h-1V22.88h2.1c1,0,1.82.32,1.82,1.41,0,.61-.47,1.2-1.46,1.24,1.64.06,1,1.71,1.7,2.4ZM281.8,23.6H281v1.54h.77c.52,0,1.09-.1,1.09-.77S282.32,23.6,281.8,23.6Z"/><path class="cls-1" d="M125.18,20.5a3.57,3.57,0,0,1,.46,0h21.21l.51,0v59.1H125.18Z"/><path class="cls-1" d="M174.72,41.94v37.6H155.89V20.49l.7,0q16.16,0,32.32,0c.59,0,.77.22.92.73q2.58,8.67,5.19,17.32c.06.2.15.4.28.74l1.79-5.71q2-6.23,3.91-12.46a.71.71,0,0,1,.81-.61h33.77c.2,0,.39,0,.61,0v59H214.67v-37l-.12,0c-.08.22-.16.43-.23.65Q209.15,61,204,78.8a.91.91,0,0,1-1.07.79q-7.83,0-15.66,0a.85.85,0,0,1-1-.71q-5.6-18.26-11.23-36.5c0-.15-.1-.29-.15-.43Z"/><path class="cls-1" d="M271.94,20.51H250.1v.84q0,16,0,32,0,1-.09,2A6.11,6.11,0,0,1,244.72,61V79.47A37.51,37.51,0,0,0,257.25,78,19.12,19.12,0,0,0,270,66.18,30.06,30.06,0,0,0,272,55.32c0-11.43,0-22.86,0-34.29A4.8,4.8,0,0,0,271.94,20.51Z"/><line class="cls-3" x1="106.16" y1="12.5" x2="106.16" y2="87.5"/></svg>