<?xml version="1.0" encoding="utf-8"?>
<!-- Generator: Adobe Illustrator 25.4.1, SVG Export Plug-In . SVG Version: 6.00 Build 0)  -->
<svg version="1.1" id="Capa_1" xmlns="http://www.w3.org/2000/svg" xmlns:xlink="http://www.w3.org/1999/xlink" x="0px" y="0px"
	 viewBox="0 0 300 100" style="enable-background:new 0 0 300 100;" xml:space="preserve">
<style type="text/css">
	.st0{fill:#525252;}
	.st1{fill:none;stroke:#525252;stroke-linecap:round;stroke-miterlimit:10;}
	.st2{fill:#FCB23B;}
</style>
<path class="st0" d="M272.3,29.3c0.1-2.2,2-4,4.2-3.9c2.1,0.1,3.8,1.8,3.9,3.9c-0.1,2.2-2,4-4.2,3.9C274,33.1,272.4,31.4,272.3,29.3
	z M279.6,29.3c0.1-1.8-1.3-3.4-3.2-3.5c-1.8-0.1-3.4,1.3-3.5,3.2c0,0.1,0,0.2,0,0.3c-0.1,1.8,1.3,3.4,3.2,3.5
	c1.8,0.1,3.4-1.3,3.5-3.2C279.7,29.5,279.7,29.4,279.6,29.3z M277.4,31.4c-0.5-0.4-0.1-1.7-1.1-1.7h-0.6v1.7h-0.8v-4.3h1.8
	c0.8,0,1.5,0.3,1.5,1.2c0,0.5-0.4,1-1.2,1c1.4,0.1,0.8,1.4,1.4,2L277.4,31.4z M276.3,27.7h-0.7V29h0.6c0.4,0,0.9-0.1,0.9-0.6
	S276.8,27.7,276.3,27.7z"/>
<path class="st0" d="M144.2,25.1c0.1,0,0.3,0,0.4,0h17.9h0.4V75h-18.7V25.1z"/>
<path class="st0" d="M186,43.2v31.7h-15.9V25.1h0.6c9.1,0,18.2,0,27.3,0c0.5,0,0.6,0.2,0.8,0.6c1.5,4.9,2.9,9.7,4.4,14.6
	c0.1,0.2,0.1,0.3,0.2,0.6l1.5-4.8c1.1-3.5,2.2-7,3.3-10.5c0-0.3,0.3-0.6,0.7-0.5c0,0,0,0,0,0h28.5c0.2,0,0.3,0,0.5,0v49.8h-18.2
	V43.7h-0.1c-0.1,0.2-0.1,0.4-0.2,0.5c-2.9,10-5.8,20.1-8.7,30.1c0,0.4-0.4,0.7-0.9,0.7c0,0,0,0-0.1,0c-4.4,0-8.8,0-13.2,0
	c-0.4,0.1-0.8-0.2-0.8-0.6c0,0,0,0,0,0c-3.2-10.3-6.3-20.5-9.5-30.8c0-0.1-0.1-0.2-0.1-0.4L186,43.2z"/>
<path class="st0" d="M268,25.1h-18.4v0.7c0,9,0,18,0,27c0,0.6,0,1.1-0.1,1.7c-0.2,2.4-2,4.4-4.5,4.8v15.6c3.6,0.2,7.1-0.2,10.6-1.2
	c5-1.4,9-5.1,10.8-10c1.1-2.9,1.7-6,1.7-9.2c0-9.6,0-19.3,0-28.9C268,25.4,268,25.3,268,25.1z"/>
<line class="st1" x1="120.7" y1="12.5" x2="120.7" y2="87.5"/>
<g>
	<path class="st0" d="M96.8,29.2L78.3,10.6c-8.2-8.2-21.5-8.2-29.7,0L36.3,22.9l18.1,18.1l-6,6L30.3,28.9L18,41.2
		C9.8,49.4,9.8,62.7,18,71l18.5,18.5c8.2,8.2,21.5,8.2,29.7,0l12.3-12.3L60.4,59l6-6l18.1,18.1l12.3-12.3
		C105,50.7,105,37.4,96.8,29.2z M30.2,72.8c-1.6-0.3-3.2-0.8-4.7-1.6c-1.5-0.8-2.9-1.8-4.2-3c-6.6-6.7-6.6-17.4,0-24.1l9.1-9.1l6,6
		l-9,9c-3.3,3.4-3.4,8.9,0,12.2c1.4,1.4,3.3,2.2,5.1,2.4C31.2,67.1,30.4,69.9,30.2,72.8z M45.3,68.1c-1.6,1.7-2.5,3.8-2.5,6
		c0,2.2,0.8,4.4,2.6,6.1c3.4,3.3,8.8,3.2,12.1-0.1l9-9l5.9,6l-9.1,9.1c-3.3,3.3-7.7,5-12,5s-8.7-1.6-12-5c-3.6-3.6-5.3-8.4-5-13.1
		c0.3-4,1.9-7.9,5-10.9l9.1-9.1L69.5,32c2.2-2.2,3-5.4,2.2-8.2c-0.2-0.7-0.5-1.4-0.8-2.1s-0.8-1.3-1.4-1.8c-3.3-3.3-8.7-3.3-12.1,0
		L48.3,29l-6-6l9.1-9.1c3.3-3.3,7.7-5,12-5c4.3,0,8.7,1.6,12,5c1.1,1.1,1.9,2.2,2.6,3.5c0.8,1.3,1.3,2.8,1.7,4.2
		c1.5,5.7,0,11.9-4.4,16.4L66.3,47L45.3,68.1z M89.8,54.7l-6.5,6.5l-6.7-6.7c-4.7-5.3-1.3-14.6,6.7-14.6
		C91.3,39.9,94.7,49.5,89.8,54.7z"/>
	<g>
		<g>
			<path class="st2" d="M83.3,39.9c-8,0-11.4,9.3-6.7,14.6l6.7,6.7l6.5-6.5C94.7,49.5,91.3,39.9,83.3,39.9z M83.3,52.5
				c-2.3,0-4.2-1.8-4.2-4.2s1.8-4.2,4.2-4.2c2.3,0,4.2,1.8,4.2,4.2C87.4,50.6,85.6,52.5,83.3,52.5z"/>
		</g>
	</g>
</g>
</svg>
