<?xml version="1.0" encoding="utf-8"?>
<!-- Generator: Adobe Illustrator 25.4.1, SVG Export Plug-In . SVG Version: 6.00 Build 0)  -->
<svg version="1.1" id="Capa_1" xmlns="http://www.w3.org/2000/svg" xmlns:xlink="http://www.w3.org/1999/xlink" x="0px" y="0px"
	 viewBox="0 0 1080 274" style="enable-background:new 0 0 1080 274;" xml:space="preserve">
<style type="text/css">
	.st0{fill:#525252;}
	.st1{fill:#FCB23B;}
	.st2{opacity:0.5;}
</style>
<path class="st0" d="M216.4,96.6c0,7.4-6,13.4-13.4,13.4s-13.4-6-13.4-13.4s6-13.4,13.4-13.4S216.4,89.2,216.4,96.6L216.4,96.6z"/>
<path class="st1" d="M149.6,98l-0.3,0.3l-0.2-0.2L149.6,98z"/>
<path class="st1" d="M118.2,113.8H118c0,0,0-0.1,0-0.2L118.2,113.8z"/>
<path class="st1" d="M165.1,176.1l-0.2,0.2c0-0.1,0-0.2,0-0.3L165.1,176.1z"/>
<path class="st1" d="M118.2,129.3l-0.2,0.2v-0.4L118.2,129.3z"/>
<path class="st1" d="M102.7,113.8h-0.3l0.2-0.2L102.7,113.8z"/>
<path class="st0" d="M228.6,10.7h-57.7c0.6,0.6,1.3,1.2,1.9,1.8c2.6,2.6,4.9,5.6,6.8,8.8c2,3.4,3.5,7.1,4.6,10.9
	c4.1,15.2-0.2,31.5-11.4,42.6L149.6,98l-0.3,0.3l-15.6-15.7l25.1-25.2c7.7-9.5,6.3-23.4-3.2-31.1c-8.1-6.6-19.7-6.6-27.8,0
	l-81.3,81.3c-4.4,5.5-6,12.8-4.2,19.6c2.4,8.8,9.9,15.2,18.9,16.2c-1.7,3.3-3,6.8-4,10.4c-0.6,2.1-1,4.3-1.3,6.4
	c-0.2,1.5-0.4,3-0.5,4.5c-1.1-0.2-2.2-0.4-3.3-0.7c-3.8-1-7.5-2.6-10.9-4.6c-6.4-3.8-11.8-9.2-15.6-15.6
	c-10.1-17.3-7.3-39.3,6.8-53.5L87,36l0.3-0.3l23.2-23.2c0.6-0.6,1.2-1.2,1.9-1.8H46.3L71.5,36L55.9,51.6L16.5,12.1
	C11.3,14.6,8,19.8,8,25.5v161.1c0,8.2,6.6,14.8,14.8,14.8h58.3c-0.7-0.6-1.3-1.2-1.9-1.8c-5.5-5.5-9.4-12.3-11.4-19.8
	c-0.3-1.1-0.5-2.2-0.8-3.4c-0.7-3.6-0.9-7.2-0.6-10.9c0.6-10.1,4.7-19.6,11.5-27.1l1.3-1.4l23.3-23.2l0.2-0.2l0.1,0.1l15.3,15.3
	l0.2,0.1l-23.4,23.4c-4.7,4.7-7.1,11.3-6.4,17.9c1.2,12.1,12.1,21,24.2,19.7c5.1-0.5,9.8-2.8,13.4-6.4l54.5-54.5l15.6,15.6
	L165,176.2l-0.2,0.2l-23.3,23.2c-0.6,0.6-1.2,1.2-1.9,1.8h66l-25.2-25.3l15.6-15.6l39.2,39.2c5-2.5,8.1-7.6,8.1-13.2v-161
	C243.4,17.3,236.8,10.7,228.6,10.7z M149.4,145.1l-31.2-31.3l0,0h-0.1v-0.1l-31-31L102.6,67l62.5,62.5L149.4,145.1z M224,117.1
	l-21,21l-21.5-21.6c-9.8-11.1-8.5-27.8,0.7-37.9c5.3-5.8,12.9-9,20.8-8.9C228.9,69.7,239.8,100.3,224,117.1L224,117.1z"/>
<path class="st0" d="M9.8,223.6c0-7.7,5-11.4,11.3-11.4s11.4,3.8,11.4,11.4s-5.2,11.5-11.4,11.5S9.8,231.4,9.8,223.6z M27.4,223.6
	c0-4.9-2.5-7.2-6.3-7.2s-6.3,2.4-6.3,7.3s2.5,7.3,6.3,7.3S27.4,228.5,27.4,223.6L27.4,223.6z"/>
<path class="st0" d="M36.9,225v-12.4h4.9v12.5c0,4.2,1.9,5.8,5,5.8c3.4,0,4.9-1.7,4.9-6v-12.3h4.9v12.2c0,6.4-3.1,10.2-9.8,10.2
	S36.9,231.4,36.9,225z"/>
<path class="st0" d="M66.9,234.7v-18H60v-4h18.6v4h-6.9v18H66.9z"/>
<path class="st0" d="M87.8,223.6c0-7.7,5-11.4,11.3-11.4s11.4,3.7,11.4,11.4s-5.2,11.5-11.4,11.5S87.8,231.4,87.8,223.6z
	 M105.4,223.6c0-4.9-2.5-7.2-6.3-7.2s-6.3,2.4-6.3,7.3s2.5,7.3,6.3,7.3S105.4,228.5,105.4,223.6L105.4,223.6z"/>
<path class="st0" d="M115.1,234.7v-22.1h15.8v4H120v5.5h9.2v4.1H120v8.4L115.1,234.7z"/>
<path class="st0" d="M156.7,234.7v-9.2H147v9.2h-4.9v-22.1h4.9v8.8h9.7v-8.8h4.9v22.1H156.7z"/>
<path class="st0" d="M166.1,223.6c0-7.7,5-11.4,11.3-11.4s11.4,3.7,11.4,11.4s-5.2,11.5-11.4,11.5S166.1,231.4,166.1,223.6z
	 M183.7,223.6c0-4.9-2.5-7.2-6.3-7.2s-6.3,2.4-6.3,7.3s2.5,7.3,6.3,7.3S183.7,228.5,183.7,223.6L183.7,223.6z"/>
<path class="st0" d="M214.1,234.7v-17l-5,17h-5.2l-5.5-17v17h-4.9v-22.1h7.4l5.6,17.5l5-17.5h7.5v22.1H214.1z"/>
<path class="st0" d="M224.6,234.7v-22.1H241v4h-11.6v4.8h10v4h-10v5.1h12v4L224.6,234.7z"/>
<path class="st1" d="M203,69.7c-7.9-0.2-15.5,3.1-20.8,8.9c-9.3,10.2-10.6,26.8-0.7,37.9l21.5,21.6l21-21
	C239.8,100.3,228.9,69.7,203,69.7z M203,110c-7.4,0-13.4-6-13.4-13.4s6-13.4,13.4-13.4s13.4,6,13.4,13.4S210.4,110,203,110L203,110z
	"/>
<path class="st1" d="M87.9,262.6v-16.4h5.9c3.3,0,5.7,1.1,5.7,4.3c0,2-1.5,3.6-3.5,3.8c2.6,0.1,4,1.3,4,3.7c0,3.3-2.2,4.7-5.8,4.7
	h-6.3V262.6z M97.3,250.6c0-1.8-1.3-2.6-3.4-2.6h-3.8v5.3H94C96,253.3,97.3,252.5,97.3,250.6z M97.8,257.9c0-1.9-1.2-2.8-3.6-2.8
	h-4.1v5.6h4.1C96.3,260.7,97.8,260.1,97.8,257.9z"/>
<path class="st1" d="M103.9,262.6v-16.4h2.2v16.4H103.9z"/>
<path class="st1" d="M114.5,262.6V248h-5.2v-1.9h12.6v1.9h-5.2v14.5L114.5,262.6z"/>
<path class="st1" d="M135.5,256.1v6.4h-2.2v-16.4h5.3c3.2,0,6.3,1,6.3,5s-3.1,5-6.3,5H135.5z M142.6,251.1c0-2.8-2-3.1-3.9-3.1h-3.2
	v6.2h3.2C140.6,254.3,142.6,253.9,142.6,251.1L142.6,251.1z"/>
<path class="st1" d="M148.4,262.6v-16.4h2.2v14.6h7.9v1.9h-10.1V262.6z"/>
<path class="st1" d="M171.2,258.3H164l-1.6,4.3h-2.3l6.3-16.4h2.5l6.3,16.4h-2.4L171.2,258.3z M164.7,256.4h5.8l-2.9-7.8
	L164.7,256.4z"/>
<path class="st1" d="M188.6,262.6l-8.4-13.4v13.4H178v-16.4h2.8l8.1,13.3v-13.3h2.2v16.4H188.6z"/>
<path class="st1" d="M206.5,262.6l-8.4-13.4v13.4h-2.2v-16.4h2.8l8.1,13.3v-13.3h2.2v16.4H206.5z"/>
<path class="st1" d="M213.7,262.6v-16.4h11v1.9h-8.8v5.2h7.4v1.9h-7.4v5.6h8.9v1.9L213.7,262.6z"/>
<path class="st1" d="M228.8,262.6v-16.4h6.2c3.1,0,5.7,1.1,5.7,4.6c0,2.1-1.6,3.9-4.7,4.1c5.3,0.2,3.7,5.7,5.5,7.8h-2.4
	c-1.5-1.6-0.2-7-4.8-7H231v7h-2.2V262.6z M238.3,250.7c0-2.2-1.9-2.7-3.7-2.7H231v5.7h3.7C236.4,253.7,238.3,253,238.3,250.7
	L238.3,250.7z"/>
<path class="st0" d="M1031.1,32c0-11.9,8.6-20.1,20.3-20.1c12,0,20.6,8.2,20.6,20.1s-8.6,20-20.6,20
	C1039.7,52,1031.1,43.8,1031.1,32z M1068.3,32c0-9.9-7.1-16.9-16.9-16.9c-9.7,0-16.7,7-16.7,16.9s7.1,16.8,16.7,16.8
	C1061.2,48.8,1068.3,41.9,1068.3,32L1068.3,32z M1056.8,42.6c-2.3-2.1-0.5-8.8-5.8-8.8h-3v8.8h-4.3V21h9c4.1,0,7.8,1.4,7.8,6
	c0,2.6-2,5.1-6.2,5.3c7,0.2,4.3,7.3,7.2,10.2L1056.8,42.6z M1051.3,24.2h-3.3v6.5h3.3c2.2,0,4.7-0.4,4.7-3.3
	S1053.6,24.1,1051.3,24.2L1051.3,24.2z"/>
<path class="st0" d="M384.4,10.9c0.6-0.1,1.3-0.1,2-0.1h90.3c0.6,0,1.3,0.1,2.2,0.1v251.7h-94.5L384.4,10.9L384.4,10.9z"/>
<path class="st0" d="M595.3,102.2v160.1h-80.2V10.9c1-0.1,2-0.1,3-0.1c45.9,0,91.8,0,137.6-0.1c2.5,0,3.3,0.9,3.9,3.1
	c7.3,24.6,14.7,49.2,22.1,73.7c0.3,0.9,0.6,1.7,1.2,3.2c2.7-8.5,5.2-16.4,7.7-24.3c5.6-17.7,11.1-35.4,16.6-53.1
	c0.6-1.9,1.4-2.6,3.5-2.6c47.9,0.1,95.9,0.1,143.8,0.1c0.8,0,1.6,0.1,2.6,0.1v251.5h-91.7V104.6l-0.5-0.1c-0.3,0.9-0.7,1.8-1,2.8
	c-14.7,50.6-29.4,101.3-44,151.9c-0.8,2.7-1.9,3.4-4.6,3.4c-22.2-0.1-44.5-0.1-66.7,0c-2.5,0-3.5-0.6-4.3-3
	c-15.9-51.8-31.8-103.6-47.8-155.4c-0.2-0.6-0.4-1.2-0.6-1.8L595.3,102.2z"/>
<path class="st0" d="M1009.4,11h-93v3.6c0,45.4,0,90.8,0,136.2c0,2.8-0.1,5.6-0.4,8.4c-1.2,13.1-10.5,22.9-22.5,24.3V262
	c18,0.5,35.9-0.8,53.4-6.4c26-8.2,44.5-24.6,54.4-50.2c5.6-14.8,8.4-30.5,8.2-46.2c0.1-48.7,0.1-97.4,0.1-146.1
	C1009.6,12.4,1009.4,11.7,1009.4,11z"/>
<g class="st2">
	<path class="st0" d="M286.4,149.1V114h12.7c7.1,0,12.3,2.3,12.3,9.2c0.1,4.3-3.3,7.8-7.5,8c5.5,0.2,8.6,2.9,8.6,7.9
		c0,7.1-4.7,10-12.3,10L286.4,149.1z M306.4,123.4c0-3.9-2.7-5.5-7.2-5.5H291v11.4h8.2C303.6,129.2,306.4,127.6,306.4,123.4
		L306.4,123.4z M307.5,139.1c0-4.1-2.5-5.9-7.6-5.9H291v11.9h8.9C304.3,145.1,307.5,143.9,307.5,139.1L307.5,139.1z"/>
	<path class="st0" d="M319.1,155.3c0.8,0.3,1.7,0.4,2.6,0.4c2,0,3.2-1,4.1-3.2l1.3-3.5l-9.9-26.7h4.6l7.6,21.4l7.3-21.4h4.5
		l-11.5,31.1c-1.6,4.2-3.5,5.8-7.1,5.8c-1.5,0-3.1-0.3-4.4-1L319.1,155.3z"/>
</g>
</svg>
