<?xml version="1.0" encoding="utf-8"?>
<!-- Generator: Adobe Illustrator 25.4.1, SVG Export Plug-In . SVG Version: 6.00 Build 0)  -->
<svg version="1.1" id="Capa_1" xmlns="http://www.w3.org/2000/svg" xmlns:xlink="http://www.w3.org/1999/xlink" x="0px" y="0px"
	 viewBox="0 0 72.1 75" style="enable-background:new 0 0 72.1 75;" xml:space="preserve">
<style type="text/css">
	.st0{fill:#525252;}
	.st1{fill:#FCB23B;}
</style>
<g>
	<path class="st0" d="M65.3,22L51.6,8.2c-6.1-6.1-16-6.1-22.1,0l-9.1,9.1l13.5,13.5l-4.4,4.4L15.9,21.8L6.8,31
		c-6.1,6.1-6.1,16,0,22.1l13.8,13.7c6.1,6.1,16,6.1,22.1,0l9.1-9.1L38.3,44.2l4.4-4.4l13.5,13.5l9.1-9.1C71.4,38,71.4,28.1,65.3,22z
		 M15.8,54.4c-1.2-0.2-2.4-0.6-3.5-1.2c-1.1-0.6-2.2-1.3-3.1-2.3c-4.9-5-4.9-12.9,0-17.9l6.8-6.8l4.4,4.4l-6.7,6.7
		c-2.5,2.5-2.5,6.6,0,9.1c1,1,2.4,1.6,3.8,1.8C16.6,50.2,16,52.2,15.8,54.4z M27.1,50.9c-1.2,1.2-1.9,2.9-1.9,4.5
		c0,1.6,0.6,3.3,1.9,4.5c2.5,2.4,6.5,2.4,9-0.1l6.7-6.7l4.4,4.4l-6.8,6.8C38,66.8,34.8,68,31.5,68s-6.5-1.2-8.9-3.7
		c-2.7-2.7-3.9-6.3-3.7-9.7c0.2-3,1.4-5.9,3.7-8.1l6.8-6.8L45,24.1c1.6-1.6,2.2-4,1.6-6.1c-0.1-0.5-0.3-1-0.6-1.5
		c-0.3-0.5-0.6-0.9-1-1.3c-2.5-2.5-6.5-2.5-9,0l-6.8,6.8l-4.4-4.4l6.8-6.8C34.1,8.2,37.3,7,40.5,7c3.2,0,6.5,1.2,8.9,3.7
		c0.8,0.8,1.4,1.6,2,2.6c0.6,1,1,2,1.3,3.1c1.1,4.2,0,8.9-3.3,12.2l-6.8,6.8L27.1,50.9z M60.1,41l-4.8,4.8l-5-5
		c-3.5-3.9-0.9-10.8,5-10.8C61.2,30,63.8,37.1,60.1,41z"/>
	<g>
		<g>
			<path class="st1" d="M55.2,30c-5.9,0-8.5,6.9-5,10.8l5,5l4.8-4.8C63.8,37.1,61.2,30,55.2,30z M55.2,39.3c-1.7,0-3.1-1.4-3.1-3.1
				c0-1.7,1.4-3.1,3.1-3.1c1.7,0,3.1,1.4,3.1,3.1C58.3,37.9,57,39.3,55.2,39.3z"/>
		</g>
	</g>
</g>
</svg>
