<svg id="Capa_1" data-name="Capa 1" xmlns="http://www.w3.org/2000/svg" viewBox="0 0 190 75"><path d="M173.94,10.23a5.33,5.33,0,0,1,10.66,0,5.33,5.33,0,0,1-10.66,0Zm9.7,0a4.38,4.38,0,1,0-8.76,0,4.38,4.38,0,0,0,8.76,0Zm-3,2.76c-.6-.54-.13-2.29-1.5-2.29h-.79V13h-1.12V7.38h2.34c1.07,0,2,.35,2,1.57,0,.67-.52,1.32-1.62,1.37,1.82.06,1.12,1.9,1.88,2.67Zm-1.43-4.81h-.86V9.89h.86c.58,0,1.21-.11,1.21-.85S179.8,8.18,179.22,8.18Z"/><path d="M5.4,4.73l.51,0H29.45l.57,0V70.31H5.4Z"/><path d="M60.38,28.54V70.26H39.48V4.73l.78,0q17.94,0,35.87,0c.65,0,.86.24,1,.81Q80,15.09,82.91,24.7c.07.23.16.44.31.82.69-2.21,1.34-4.27,2-6.33q2.17-6.92,4.33-13.83a.8.8,0,0,1,.91-.68q18.74,0,37.48,0l.67,0V70.27H104.71V29.16l-.13,0c-.08.24-.18.48-.25.73Q98.59,49.65,92.85,69.44a1,1,0,0,1-1.19.88q-8.68,0-17.38,0a.94.94,0,0,1-1.11-.79Q67,49.27,60.7,29l-.16-.48Z"/><path d="M168.28,4.75H144v.94q0,17.74,0,35.49c0,.73,0,1.47-.1,2.2a6.76,6.76,0,0,1-5.87,6.33V70.19A41.85,41.85,0,0,0,152,68.52a21.29,21.29,0,0,0,14.17-13.08,33.34,33.34,0,0,0,2.15-12q.06-19,0-38.07C168.33,5.13,168.3,5,168.28,4.75Z"/></svg>