<?xml version="1.0" encoding="utf-8"?>
<!-- Generator: Adobe Illustrator 25.4.1, SVG Export Plug-In . SVG Version: 6.00 Build 0)  -->
<svg version="1.1" id="Capa_1" xmlns="http://www.w3.org/2000/svg" xmlns:xlink="http://www.w3.org/1999/xlink" x="0px" y="0px"
	 viewBox="0 0 190 75" style="enable-background:new 0 0 190 75;" xml:space="preserve">
<style type="text/css">
	.st0{fill:#FFFFFF;}
</style>
<path class="st0" d="M173.9,10.2c0-2.9,2.4-5.3,5.3-5.3s5.3,2.4,5.3,5.3s-2.4,5.3-5.3,5.3S173.9,13.2,173.9,10.2z M183.6,10.2
	c0-2.4-2-4.4-4.4-4.4c-2.4,0-4.4,2-4.4,4.4c0,0,0,0,0,0c0,2.4,2,4.4,4.4,4.4C181.7,14.6,183.6,12.6,183.6,10.2z M180.6,13
	c-0.6-0.5-0.1-2.3-1.5-2.3h-0.8V13h-1.1V7.4h2.3c1.1,0,2,0.3,2,1.6c0,0.7-0.5,1.3-1.6,1.4c1.8,0.1,1.1,1.9,1.9,2.7H180.6z
	 M179.2,8.2h-0.9v1.7h0.9c0.6,0,1.2-0.1,1.2-0.9S179.8,8.2,179.2,8.2L179.2,8.2z"/>
<path class="st0" d="M5.4,4.7h0.5h23.5H30v65.6H5.4V4.7z"/>
<path class="st0" d="M60.4,28.5v41.7H39.5V4.7h0.8c12,0,23.9,0,35.9,0c0.7,0,0.9,0.2,1,0.8c1.9,6.4,3.8,12.8,5.8,19.2
	c0.1,0.2,0.2,0.4,0.3,0.8c0.7-2.2,1.3-4.3,2-6.3c1.4-4.6,2.9-9.2,4.3-13.8c0.1-0.4,0.5-0.7,0.9-0.7c0,0,0,0,0,0c12.5,0,25,0,37.5,0
	h0.7v65.6h-23.9V29.2h-0.1c-0.1,0.2-0.2,0.5-0.2,0.7c-3.8,13.2-7.7,26.4-11.5,39.6c-0.1,0.5-0.5,0.9-1.1,0.9c0,0-0.1,0-0.1,0
	c-5.8,0-11.6,0-17.4,0c-0.5,0.1-1-0.2-1.1-0.7c0,0,0,0,0,0C69.1,56,64.9,42.5,60.7,29l-0.2-0.5L60.4,28.5z"/>
<path class="st0" d="M168.3,4.8H144v0.9c0,11.8,0,23.7,0,35.5c0,0.7,0,1.5-0.1,2.2c-0.2,3.2-2.6,5.9-5.9,6.3v20.5
	c4.7,0.2,9.4-0.3,14-1.7c6.5-1.8,11.8-6.7,14.2-13.1c1.4-3.8,2.2-7.9,2.1-12c0-12.7,0-25.4,0-38.1C168.3,5.1,168.3,5,168.3,4.8z"/>
</svg>
