<?xml version="1.0" encoding="utf-8"?>
<!-- Generator: Adobe Illustrator 25.4.1, SVG Export Plug-In . SVG Version: 6.00 Build 0)  -->
<svg version="1.1" id="Capa_1" xmlns="http://www.w3.org/2000/svg" xmlns:xlink="http://www.w3.org/1999/xlink" x="0px" y="0px"
	 viewBox="0 0 72.1 75" style="enable-background:new 0 0 72.1 75;" xml:space="preserve">
<style type="text/css">
	.st0{fill:#FCB23B;}
	.st1{fill:#525252;}
</style>
<g>
	<path class="st0" d="M62,26.1c0,2.1-1.7,3.8-3.8,3.8s-3.8-1.7-3.8-3.8s1.7-3.8,3.8-3.8S62,23.9,62,26.1L62,26.1z"/>
	<path class="st0" d="M65.4,1.5H49c0.2,0.2,0.4,0.3,0.5,0.5c0.7,0.7,1.4,1.6,1.9,2.5c0.6,1,1,2,1.3,3.1c1.2,4.3-0.1,9-3.3,12.2
		l-6.6,6.6l-0.1,0.1L38.2,22l7.2-7.2c2.2-2.7,1.8-6.7-0.9-8.9c-2.3-1.9-5.6-1.9-7.9,0L13.5,29.2c-1.3,1.6-1.7,3.7-1.2,5.6
		c0.7,2.5,2.8,4.3,5.4,4.6c-0.5,0.9-0.9,1.9-1.1,3c-0.2,0.6-0.3,1.2-0.4,1.8c-0.1,0.4-0.1,0.9-0.1,1.3c-0.3-0.1-0.6-0.1-0.9-0.2
		C14,45,12.9,44.5,12,44c-1.8-1.1-3.4-2.6-4.5-4.5c-2.9-4.9-2.1-11.2,1.9-15.3L25,8.8l0.1-0.1l6.6-6.6c0.2-0.2,0.3-0.3,0.5-0.5H13.4
		l7.2,7.2l-4.5,4.5L4.9,1.9C3.4,2.7,2.5,4.1,2.5,5.8v46c0,2.3,1.9,4.2,4.2,4.2h16.6c-0.2-0.2-0.4-0.3-0.5-0.5
		c-1.6-1.6-2.7-3.5-3.3-5.7c-0.1-0.3-0.1-0.6-0.2-1c-0.2-1-0.3-2.1-0.2-3.1c0.2-2.9,1.3-5.6,3.3-7.7l0.4-0.4l6.6-6.6l0.1-0.1l0,0
		l4.4,4.4H34L27.3,42c-1.3,1.3-2,3.2-1.8,5.1c0.3,3.5,3.5,6,6.9,5.6c1.5-0.1,2.8-0.8,3.8-1.8l15.6-15.6l4.5,4.5l-8.9,9l-0.1,0.1
		l-6.6,6.6c-0.2,0.2-0.3,0.3-0.5,0.5H59l-7.2-7.2l4.5-4.5l11.2,11.2c1.4-0.7,2.3-2.2,2.3-3.8V5.8C69.7,3.4,67.8,1.5,65.4,1.5z
		 M42.8,39.9L33.9,31l0,0l0,0l0,0l-8.8-8.8l4.4-4.5l17.8,17.8L42.8,39.9z M64.1,31.9l-6,6L52,31.7c-2.8-3.2-2.4-7.9,0.2-10.8
		c1.5-1.7,3.7-2.6,5.9-2.5C65.5,18.4,68.6,27.1,64.1,31.9L64.1,31.9z"/>
	<path class="st0" d="M3,62.3C3,60.1,4.4,59,6.2,59s3.3,1.1,3.3,3.3S8,65.6,6.2,65.6S3,64.5,3,62.3z M8,62.3c0-1.4-0.7-2.1-1.8-2.1
		s-1.8,0.7-1.8,2.1s0.7,2.1,1.8,2.1S8,63.7,8,62.3L8,62.3z"/>
	<path class="st0" d="M10.7,62.7v-3.5h1.4v3.6c0,1.2,0.5,1.7,1.4,1.7c1,0,1.4-0.5,1.4-1.7v-3.5h1.4v3.5c0,1.8-0.9,2.9-2.8,2.9
		S10.7,64.5,10.7,62.7z"/>
	<path class="st0" d="M19.3,65.5v-5.1h-2v-1.1h5.3v1.1h-2v5.1H19.3z"/>
	<path class="st0" d="M25.3,62.3c0-2.2,1.4-3.3,3.2-3.3c1.8,0,3.3,1.1,3.3,3.3s-1.5,3.3-3.3,3.3S25.3,64.5,25.3,62.3z M30.3,62.3
		c0-1.4-0.7-2.1-1.8-2.1s-1.8,0.7-1.8,2.1s0.7,2.1,1.8,2.1S30.3,63.7,30.3,62.3L30.3,62.3z"/>
	<path class="st0" d="M33.1,65.5v-6.3h4.5v1.1h-3.1v1.6h2.6V63h-2.6v2.4L33.1,65.5z"/>
	<path class="st0" d="M44.9,65.5v-2.6h-2.8v2.6h-1.4v-6.3h1.4v2.5h2.8v-2.5h1.4v6.3H44.9z"/>
	<path class="st0" d="M47.6,62.3c0-2.2,1.4-3.3,3.2-3.3s3.3,1.1,3.3,3.3s-1.5,3.3-3.3,3.3S47.6,64.5,47.6,62.3z M52.6,62.3
		c0-1.4-0.7-2.1-1.8-2.1S49,60.9,49,62.3s0.7,2.1,1.8,2.1S52.6,63.7,52.6,62.3L52.6,62.3z"/>
	<path class="st0" d="M61.3,65.5v-4.9l-1.4,4.9h-1.5l-1.6-4.9v4.9h-1.4v-6.3h2.1l1.6,5l1.4-5h2.1v6.3H61.3z"/>
	<path class="st0" d="M64.3,65.5v-6.3H69v1.1h-3.3v1.4h2.9v1.1h-2.9v1.5h3.4v1.1L64.3,65.5z"/>
	<path class="st1" d="M58.1,18.4c-2.3-0.1-4.4,0.9-5.9,2.5c-2.7,2.9-3,7.6-0.2,10.8l6.1,6.2l6-6C68.6,27.1,65.5,18.4,58.1,18.4z
		 M58.1,29.9c-2.1,0-3.8-1.7-3.8-3.8s1.7-3.8,3.8-3.8s3.8,1.7,3.8,3.8S60.3,29.9,58.1,29.9L58.1,29.9z"/>
	<path class="st1" d="M25.3,73.4v-4.7H27c0.9,0,1.6,0.3,1.6,1.2c0,0.6-0.4,1-1,1.1c0.7,0,1.1,0.4,1.1,1.1c0,0.9-0.6,1.3-1.7,1.3
		H25.3L25.3,73.4z M28,70c0-0.5-0.4-0.7-1-0.7h-1.1v1.5H27C27.6,70.8,28,70.5,28,70z M28.1,72.1c0-0.5-0.3-0.8-1-0.8h-1.2v1.6h1.2
		C27.7,72.9,28.1,72.7,28.1,72.1z"/>
	<path class="st1" d="M29.9,73.4v-4.7h0.6v4.7H29.9z"/>
	<path class="st1" d="M32.9,73.4v-4.2h-1.5v-0.5H35v0.5h-1.5v4.1L32.9,73.4z"/>
	<path class="st1" d="M38.9,71.6v1.8h-0.6v-4.7h1.5c0.9,0,1.8,0.3,1.8,1.4s-0.9,1.4-1.8,1.4L38.9,71.6L38.9,71.6z M40.9,70.1
		c0-0.8-0.6-0.9-1.1-0.9h-0.9V71h0.9C40.3,71.1,40.9,70.9,40.9,70.1L40.9,70.1z"/>
	<path class="st1" d="M42.6,73.4v-4.7h0.6v4.2h2.3v0.5H42.6L42.6,73.4z"/>
	<path class="st1" d="M49.1,72.2H47l-0.5,1.2h-0.7l1.8-4.7h0.7l1.8,4.7h-0.7L49.1,72.2z M47.2,71.7h1.7L48,69.4L47.2,71.7z"/>
	<path class="st1" d="M54,73.4l-2.4-3.8v3.8H51v-4.7h0.8l2.3,3.8v-3.8h0.6v4.7H54z"/>
	<path class="st1" d="M59.1,73.4l-2.4-3.8v3.8h-0.6v-4.7h0.8l2.3,3.8v-3.8h0.6v4.7H59.1z"/>
	<path class="st1" d="M61.2,73.4v-4.7h3.1v0.5h-2.5v1.5h2.1v0.5h-2.1v1.6h2.5v0.5L61.2,73.4z"/>
	<path class="st1" d="M65.5,73.4v-4.7h1.8c0.9,0,1.6,0.3,1.6,1.3c0,0.6-0.5,1.1-1.3,1.2c1.5,0.1,1.1,1.6,1.6,2.2h-0.7
		c-0.4-0.5-0.1-2-1.4-2h-0.9v2H65.5L65.5,73.4z M68.2,70c0-0.6-0.5-0.8-1.1-0.8h-1v1.6h1.1C67.7,70.9,68.2,70.7,68.2,70L68.2,70z"/>
</g>
</svg>
