<svg id="Capa_1" data-name="Capa 1" xmlns="http://www.w3.org/2000/svg" viewBox="0 0 175 75"><defs><style>.cls-1{fill:#fff;}.cls-2{fill:#ff2c01;}</style></defs><path d="M60.77,30.78c0-17.64,12.72-26.1,28.57-26.1,15.58,0,28.83,8.54,28.83,26.19S104.92,57.13,89.34,57.13C73.49,57.13,60.77,48.43,60.77,30.78Zm44.5-.08c0-11.12-6.32-16.52-15.84-16.52s-15.94,5.4-15.94,16.69c0,11.11,6.42,16.75,15.94,16.75S105.27,42,105.27,30.7Z"/><path d="M158.05,56.16v-21H133.29v21H120.87V5.65h12.42V25.87h24.76V5.65h12.42V56.16Z"/><polygon points="36.46 70.32 170.47 70.32 170.47 58.59 47.23 58.59 36.46 70.32"/><path class="cls-1" d="M56.08,69.51V59.88h4.35c2,0,3.55.56,3.55,2.41a2.3,2.3,0,0,1-2.17,2.25c1.46.13,2.52.77,2.52,2.18,0,1.86-1.23,2.79-3.5,2.79Zm5.73-6.85c0-.84-.64-1.13-1.47-1.13H58.2V63.8h2.14C61.18,63.8,61.81,63.49,61.81,62.66Zm.28,3.94c0-.88-.63-1.2-1.55-1.2H58.2v2.47h2.34C61.43,67.87,62.09,67.49,62.09,66.6Z"/><path class="cls-1" d="M66.27,69.51V59.88h2.12v9.63Z"/><path class="cls-1" d="M73,69.51V61.65H70V59.88h8.12v1.77h-3v7.86Z"/><path class="cls-1" d="M84.71,66.18v3.33H82.59V59.88h4.2c2.47,0,3.82,1,3.82,3.17s-1.32,3.13-3.9,3.13Zm3.7-3.13c0-1.06-.73-1.45-1.67-1.45h-2v2.86h2C87.63,64.46,88.41,64.14,88.41,63.05Z"/><path class="cls-1" d="M92.54,69.51V59.88h2.11V67.7h4.66v1.81Z"/><path class="cls-1" d="M107.15,67.49H103l-.7,2h-2.21l3.63-9.63h2.76l3.61,9.63h-2.27Zm-3.54-1.69h2.94l-1.46-4.21Z"/><path class="cls-1" d="M117.78,69.51l-4-7.08v7.08h-2.12V59.88h2.77l4,6.91V59.88h2.12v9.63Z"/><path class="cls-1" d="M129.08,69.51l-4-7.08v7.08H123V59.88h2.76l4,6.91V59.88h2.12v9.63Z"/><path class="cls-1" d="M134.25,69.51V59.88h7.17v1.77h-5.06v2.09h4.35v1.77h-4.35v2.24h5.26v1.76Z"/><path class="cls-1" d="M143.7,69.51V59.88h4.14c2.31,0,4,.77,4,2.66,0,1.49-.82,2.38-2.8,2.53,3.33.07,2.11,3.06,3.2,4.44h-2.32c-1-1,0-3.7-2.37-3.7h-1.7v3.7Zm5.94-6.76c0-.93-.75-1.15-1.83-1.15h-2v2.52h2C149,64.12,149.64,63.68,149.64,62.75Z"/><path d="M49.37,12.63l-5.58,5.59A18.25,18.25,0,0,1,18,44l-5.34,5.34-.52.52L30.69,69.51,47.8,51.58C53,46.46,57.23,39.5,57.23,31.39A26.26,26.26,0,0,0,49.37,12.63Z"/><path class="cls-2" d="M12.64,49.37,18,44A18.25,18.25,0,1,1,43.79,18.22l5.58-5.59A26.34,26.34,0,0,0,12.12,49.89l.11-.11"/><path d="M30.88,21.41a9.49,9.49,0,0,0-6.6,16.31L37.7,24.31A9.48,9.48,0,0,0,30.88,21.41Z"/></svg>