<svg id="Capa_1" data-name="Capa 1" xmlns="http://www.w3.org/2000/svg" viewBox="0 0 330 75"><defs><style>.cls-1{fill:#fff;}.cls-2{fill:#ff2c01;}</style></defs><path d="M314,8.87a5.33,5.33,0,0,1,10.66,0,5.33,5.33,0,0,1-10.66,0Zm9.7,0a4.38,4.38,0,1,0-8.76,0,4.38,4.38,0,1,0,8.76,0Zm-3,2.76c-.61-.54-.13-2.29-1.5-2.29h-.79v2.29h-1.12V6h2.33c1.08,0,2,.36,2,1.57,0,.67-.51,1.32-1.61,1.37,1.82.07,1.12,1.91,1.88,2.67Zm-1.44-4.8h-.85v1.7h.85c.59,0,1.22-.11,1.22-.85S319.87,6.83,319.28,6.83Z"/><path d="M145.47,3.38a4.38,4.38,0,0,1,.51,0h23.53l.57,0V69H145.47Z"/><path d="M200.45,27.18V68.91h-20.9V3.37c.26,0,.52,0,.78,0q17.92,0,35.86,0c.66,0,.86.24,1,.81q2.86,9.61,5.76,19.21c.07.23.16.45.3.83l2-6.33q2.17-6.91,4.33-13.84a.8.8,0,0,1,.91-.68q18.73,0,37.48,0c.21,0,.42,0,.67,0V68.91H244.78V27.8l-.13,0c-.08.24-.18.47-.25.72q-5.75,19.78-11.48,39.58a1,1,0,0,1-1.19.89q-8.68,0-17.38,0c-.64,0-.92-.16-1.11-.8Q207,47.9,200.77,27.66c-.05-.16-.11-.32-.17-.48Z"/><path d="M308.35,3.4H284.1v.93q0,17.75,0,35.5c0,.73,0,1.46-.1,2.19a6.79,6.79,0,0,1-5.87,6.34V68.83a42.1,42.1,0,0,0,13.92-1.66,21.28,21.28,0,0,0,14.17-13.09,33.52,33.52,0,0,0,2.15-12q0-19,0-38.06A5.48,5.48,0,0,0,308.35,3.4Z"/><path d="M47,22.05C47,8.84,56.53,2.5,68.39,2.5,80.06,2.5,90,8.9,90,22.11S80.06,41.77,68.39,41.77C56.53,41.77,47,35.26,47,22.05ZM80.32,22c0-8.33-4.73-12.37-11.86-12.37s-11.93,4-11.93,12.49,4.8,12.55,11.93,12.55S80.32,30.43,80.32,22Z"/><path d="M119.84,41.05V25.31H101.3V41.05H92V3.23h9.3V18.37h18.54V3.23h9.3V41.05Z"/><polygon points="28.8 51.66 129.14 51.66 129.14 42.87 36.86 42.87 28.8 51.66"/><path class="cls-1" d="M43.49,51.05V43.84h3.26c1.5,0,2.65.41,2.65,1.8a1.71,1.71,0,0,1-1.62,1.68c1.09.11,1.89.58,1.89,1.64,0,1.39-.92,2.09-2.63,2.09Zm4.29-5.13c0-.63-.48-.85-1.1-.85h-1.6v1.7h1.6C47.31,46.77,47.78,46.54,47.78,45.92ZM48,48.86c0-.65-.47-.89-1.16-.89H45.08v1.85h1.75C47.49,49.82,48,49.53,48,48.86Z"/><path class="cls-1" d="M51.12,51.05V43.84h1.59v7.21Z"/><path class="cls-1" d="M56.16,51.05V45.16H53.92V43.84H60v1.32H57.75v5.89Z"/><path class="cls-1" d="M64.93,48.55v2.5H63.34V43.84h3.14c1.85,0,2.86.73,2.86,2.37s-1,2.34-2.92,2.34Zm2.77-2.34c0-.8-.55-1.08-1.25-1.08H64.93v2.13H66.4C67.11,47.26,67.7,47,67.7,46.21Z"/><path class="cls-1" d="M70.79,51.05V43.84h1.58v5.85h3.49v1.36Z"/><path class="cls-1" d="M81.73,49.53h-3.1l-.51,1.52H76.46l2.71-7.21h2.07L84,51.05H82.24Zm-2.65-1.26h2.2l-1.09-3.16Z"/><path class="cls-1" d="M89.69,51.05l-3-5.3v5.3H85.1V43.84h2.07l3,5.17V43.84h1.58v7.21Z"/><path class="cls-1" d="M98.15,51.05l-3-5.3v5.3H93.56V43.84h2.07l3,5.17V43.84h1.59v7.21Z"/><path class="cls-1" d="M102,51.05V43.84h5.37v1.32H103.6v1.56h3.26v1.33H103.6v1.68h3.94v1.32Z"/><path class="cls-1" d="M109.09,51.05V43.84h3.11c1.73,0,3,.57,3,2,0,1.11-.61,1.78-2.1,1.89,2.5.05,1.58,2.29,2.4,3.33h-1.74c-.71-.76,0-2.77-1.77-2.77h-1.28v2.77ZM113.54,46c0-.7-.56-.86-1.36-.86h-1.5V47h1.53C113,47,113.54,46.68,113.54,46Z"/><path d="M38.47,8.46l-4.19,4.18A13.66,13.66,0,1,1,15,32l-4,4-.39.38,13.9,14.7L37.29,37.62c3.89-3.84,7.06-9,7.06-15.12A19.66,19.66,0,0,0,38.47,8.46Z"/><path class="cls-2" d="M11,36l4-4A13.66,13.66,0,1,1,34.28,12.64l4.19-4.18a19.73,19.73,0,0,0-27.9,27.89l.08-.08"/><path d="M24.62,15a7.11,7.11,0,0,0-4.94,12.22l10.05-10A7.14,7.14,0,0,0,24.62,15Z"/><path d="M110.29,56.87h3.64a6.94,6.94,0,0,1,3.61.71,2.45,2.45,0,0,1,1.12,2.25,2.83,2.83,0,0,1-.49,1.72,2,2,0,0,1-1.31.81v.08a2.59,2.59,0,0,1,1.61.92,3.1,3.1,0,0,1,.49,1.81,3,3,0,0,1-1.16,2.5,5,5,0,0,1-3.14.89h-4.37Zm2.48,4.63h1.44a2.64,2.64,0,0,0,1.46-.31,1.16,1.16,0,0,0,.45-1,1.06,1.06,0,0,0-.49-1,3.24,3.24,0,0,0-1.56-.29h-1.3Zm0,2v3h1.61a2.33,2.33,0,0,0,1.51-.4,1.43,1.43,0,0,0,.49-1.2c0-1-.69-1.45-2.08-1.45Z"/><path d="M119.82,59.62h2.67l1.69,5a7.1,7.1,0,0,1,.3,1.55h0a6.48,6.48,0,0,1,.34-1.55l1.66-5h2.61l-3.78,10.09a4.33,4.33,0,0,1-1.49,2.09,3.69,3.69,0,0,1-2.25.7,5.75,5.75,0,0,1-1.24-.14V70.43a4.1,4.1,0,0,0,1,.1,1.74,1.74,0,0,0,1.13-.39,2.57,2.57,0,0,0,.76-1.2l.14-.44Z"/><polygon points="102.04 68.67 4.86 57.5 4.92 56.68 102.72 57.79 102.04 68.67"/></svg>