<svg id="Capa_1" data-name="Capa 1" xmlns="http://www.w3.org/2000/svg" viewBox="0 0 50 50"><defs><style>.cls-1{fill:#fff;}</style></defs><path class="cls-1" d="M10.3,29.53a7.21,7.21,0,0,1,.36-1.05,3,3,0,0,1,4.59-.87l.18.14V18.63a2.88,2.88,0,0,1,1.15-2.45,2.85,2.85,0,0,1,2.5-.49,2.94,2.94,0,0,1,1.19-2.6A2.83,2.83,0,0,1,22,12.54a2.91,2.91,0,0,1,2.83,3,2.86,2.86,0,0,1,2.77.74A3.24,3.24,0,0,1,28.48,19l.27,0a2.88,2.88,0,0,1,3.36,2.79c0,2.74,0,5.49,0,8.23a15.16,15.16,0,0,1-.23,3.43,6.79,6.79,0,0,1-4.75,5.34,12.2,12.2,0,0,1-9.33-.7,17.31,17.31,0,0,1-6.74-6,5.08,5.08,0,0,1-.77-1.84Zm6.42-5.33v3.19c0,.87,0,1.74,0,2.61,0,.36-.2.49-.51.3a2.24,2.24,0,0,1-.38-.31c-.49-.48-1-1-1.48-1.43a1.65,1.65,0,0,0-2.68.85,2.2,2.2,0,0,0,.39,1.85,16,16,0,0,0,6.25,5.64,10.89,10.89,0,0,0,8.78.54,5.26,5.26,0,0,0,3.13-3,8.54,8.54,0,0,0,.61-3.53c0-2.94,0-5.87,0-8.81a4.67,4.67,0,0,0,0-.52,1.57,1.57,0,0,0-1.63-1.34,1.44,1.44,0,0,0-1.47,1.49V26a.8.8,0,0,1,0,.31.4.4,0,0,1-.25.18c-.08,0-.17-.13-.21-.22a.87.87,0,0,1,0-.28c0-2.55,0-5.09,0-7.64a1.56,1.56,0,0,0-1.59-1.63,1.48,1.48,0,0,0-1.54,1.63v7.49c0,.21.06.51-.26.51s-.24-.29-.24-.49c0-3.39,0-6.77,0-10.16a4.53,4.53,0,0,0,0-.52,1.58,1.58,0,0,0-3.13.36V25.76c0,.1,0,.23,0,.31s-.16.22-.24.22-.19-.14-.24-.23a.66.66,0,0,1,0-.28q0-3.68,0-7.35a1.38,1.38,0,0,0-.59-1.24,1.61,1.61,0,0,0-1.69-.13,1.51,1.51,0,0,0-.87,1.43C16.72,20.4,16.73,22.3,16.72,24.2Z"/><path class="cls-1" d="M37.44,16.48c-.46,0-.89,0-1.32,0s-.82-.4-.68-.84a.65.65,0,0,1,.69-.45h1.32a1.89,1.89,0,0,1-.1-.21.63.63,0,0,1,.2-.73.56.56,0,0,1,.74,0c.44.41.87.83,1.27,1.28a.53.53,0,0,1,0,.76c-.37.4-.76.78-1.15,1.15a.61.61,0,0,1-.82,0C37.29,17.22,37.25,16.93,37.44,16.48Z"/><path class="cls-1" d="M35.1,18.8a1.7,1.7,0,0,1,.51-.1.62.62,0,0,1,.42,1,14.47,14.47,0,0,1-1.17,1.18.61.61,0,0,1-.9-.07c-.35-.33-.68-.67-1-1a.65.65,0,0,1-.11-.86.63.63,0,0,1,.86-.18l.11,0v-1a3.1,3.1,0,0,1,0-.43.64.64,0,0,1,1.27,0c0,.26,0,.52,0,.77Z"/><path class="cls-1" d="M33.8,12.89a3.07,3.07,0,0,1-.57.06.59.59,0,0,1-.4-.94,11.8,11.8,0,0,1,1.27-1.28c.26-.24.57-.17.87.12s.6.59.89.89.41.63.22.94-.5.36-1,.16c0,.46,0,.91,0,1.35a.65.65,0,0,1-.9.64.69.69,0,0,1-.39-.68V12.89Z"/><path class="cls-1" d="M31.46,16.49c.24.57.07,1-.41,1.05a.82.82,0,0,1-.56-.18c-.38-.33-.72-.69-1.06-1.05a.65.65,0,0,1,0-1c.3-.31.61-.61.91-.91s.65-.42,1-.22.34.49.15,1c.43,0,.85,0,1.26,0a1.11,1.11,0,0,1,.6.21.62.62,0,0,1-.3,1,6.51,6.51,0,0,1-1,0Z"/></svg>