<svg id="Capa_1" data-name="Capa 1" xmlns="http://www.w3.org/2000/svg" viewBox="0 0 50 50"><defs><style>.cls-1{fill:#fff;}</style></defs><path class="cls-1" d="M38.35,12.34l-1.72-1.71a1.11,1.11,0,0,0-1.58,0L34,11.72l-.47.47-6.34,6.34a11.16,11.16,0,1,0,3.73,2.85l5.9-5.9.47-.47,1.1-1.09A1.13,1.13,0,0,0,38.35,12.34ZM32.73,28.59A10.29,10.29,0,1,1,22.44,18.3a10.19,10.19,0,0,1,4.08.86l-.71.71a1.08,1.08,0,0,0-.28,1.06l-1.68,4.19L28,23.45a1.1,1.1,0,0,0,1.06-.29L30.3,22A10.27,10.27,0,0,1,32.73,28.59ZM26,21.6l1.4,1.4L25,23.93Zm2.66,1.09a.45.45,0,0,1-.63,0L26.28,21a.45.45,0,0,1,0-.63L34,12.66,36.31,15Zm9.25-9.24-1.1,1.09-2.35-2.35,1.09-1.09a.45.45,0,0,1,.64,0l1.72,1.71A.47.47,0,0,1,37.88,13.45Z"/><polygon class="cls-1" points="22.85 22.51 22.03 22.51 22.03 28.18 16.36 28.18 16.36 29 22.03 29 22.03 34.67 22.85 34.67 22.85 29 28.52 29 28.52 28.18 22.85 28.18 22.85 22.51"/></svg>