<svg id="Capa_1" data-name="Capa 1" xmlns="http://www.w3.org/2000/svg" viewBox="0 0 50 50"><defs><style>.cls-1,.cls-2{fill:#fff;}.cls-2{font-size:8.82px;font-family:OpenSans-Bold, Open Sans;font-weight:700;}</style></defs><path class="cls-1" d="M25,4.42a14.7,14.7,0,1,0,14.7,14.7A14.71,14.71,0,0,0,25,4.42ZM18.35,8.35c8.24,0,14,12.55,19.85,12.55a5.13,5.13,0,0,0,.83-.06,13.19,13.19,0,0,1-.54,2.51C28.85,22,20.83,12.47,16.67,12.47c-2.45,0-4.29,1.83-5.45,3.5a14.06,14.06,0,0,1,3.57-6.61A6.92,6.92,0,0,1,18.35,8.35Zm20.26,7c-.35.6-.81,1.1-1.34,1.1C34.46,16.4,32,5.92,22.47,5.92a22.71,22.71,0,0,0-3,.21A14.13,14.13,0,0,1,38.61,15.3Zm-3.85,14a19.3,19.3,0,0,1-7.23,1.31c-3.75,0-5.57-1.31-7.56-1.31-1,0-1.23,1.34-.84,2.65a14.24,14.24,0,0,1-7-7,2.33,2.33,0,0,1,1.9-1.1c3.35,0,15.72,7.5,23.24,2.2A14.23,14.23,0,0,1,34.76,29.33Z"/><text class="cls-2" transform="translate(15.42 43.38)">KML</text></svg>