<svg id="Capa_1" data-name="Capa 1" xmlns="http://www.w3.org/2000/svg" viewBox="0 0 50 50"><path d="M33.94,36.74H16a1.9,1.9,0,0,1-1.35-.56l-3.76-3.75a1.91,1.91,0,0,1,1.35-3.26h3.23a.64.64,0,1,1,0,1.27H12.21a.61.61,0,0,0-.58.39.62.62,0,0,0,.13.7l3.76,3.75a.64.64,0,0,0,.45.19h18a.65.65,0,0,0,.45-.19l3.85-3.85a.65.65,0,0,0-.45-1.09h-3.1a.64.64,0,0,1-.64-.63.64.64,0,0,1,.64-.64h3.1a1.91,1.91,0,0,1,1.35,3.26l-3.85,3.85A1.9,1.9,0,0,1,33.94,36.74Z"/><path d="M25,33.29a1.27,1.27,0,0,1-.9-.37l-4.76-4.76a1.28,1.28,0,0,1-.27-1.39A1.25,1.25,0,0,1,20.28,26h.77L18.12,14.86a1.27,1.27,0,0,1,.22-1.1,1.25,1.25,0,0,1,1-.5h11.3a1.26,1.26,0,0,1,1.23,1.59L29.05,25.92h.82a1.27,1.27,0,0,1,.9,2.17l-4.83,4.83A1.24,1.24,0,0,1,25,33.29Zm-4.76-6,5.21,5.21L25,32l4.83-4.82h-.82a1.25,1.25,0,0,1-1-.5,1.29,1.29,0,0,1-.23-1.09l2.84-11.08H19.35l2.93,11.13a1.24,1.24,0,0,1-.22,1.1,1.25,1.25,0,0,1-1,.5Z"/></svg>