<svg id="Capa_1" data-name="Capa 1" xmlns="http://www.w3.org/2000/svg" viewBox="0 0 30 30"><defs><style>.cls-1{fill:#fcb23b;}</style></defs><path class="cls-1" d="M15.88.46h9.78A3.85,3.85,0,0,1,29.5,4.31v9.86a3.81,3.81,0,0,1-1.13,2.71L16.85,28.41a3.85,3.85,0,0,1-5.44,0L1.63,18.62a3.84,3.84,0,0,1,0-5.43L13.16,1.6A3.82,3.82,0,0,1,15.88.46Zm6,4.62A3.07,3.07,0,1,0,25,8.15,3.06,3.06,0,0,0,21.89,5.08Zm-16.68,9h0a1.35,1.35,0,0,0,0,1.93l8.89,8.89a1.35,1.35,0,0,0,1.9,0h0A1.35,1.35,0,0,0,16,23L7.09,14.09A1.37,1.37,0,0,0,5.21,14.06Z"/></svg>