<svg id="Capa_1" data-name="Capa 1" xmlns="http://www.w3.org/2000/svg" viewBox="0 0 30 30"><defs><style>.cls-1{fill:#fff;}.cls-2{fill:none;stroke:#fff;stroke-linecap:round;stroke-miterlimit:10;stroke-width:0.75px;}</style></defs><circle class="cls-1" cx="15" cy="15" r="4.5"/><line class="cls-2" x1="12.7" y1="9.46" x2="10.41" y2="3.91"/><line class="cls-2" x1="17.3" y1="9.46" x2="19.59" y2="3.91"/><line class="cls-2" x1="20.54" y1="12.7" x2="26.09" y2="10.41"/><line class="cls-2" x1="20.54" y1="17.3" x2="26.09" y2="19.59"/><line class="cls-2" x1="17.3" y1="20.54" x2="19.59" y2="26.09"/><line class="cls-2" x1="12.7" y1="20.54" x2="10.41" y2="26.09"/><line class="cls-2" x1="9.46" y1="17.3" x2="3.91" y2="19.59"/><line class="cls-2" x1="9.46" y1="12.7" x2="3.91" y2="10.41"/><line class="cls-2" x1="15" y1="8.25" x2="15" y2="5.25"/><line class="cls-2" x1="10.23" y1="10.23" x2="8.11" y2="8.11"/><line class="cls-2" x1="8.25" y1="15" x2="5.25" y2="15"/><line class="cls-2" x1="10.23" y1="19.77" x2="8.11" y2="21.89"/><line class="cls-2" x1="15" y1="21.75" x2="15" y2="24.75"/><line class="cls-2" x1="19.77" y1="19.77" x2="21.89" y2="21.89"/><line class="cls-2" x1="21.75" y1="15" x2="24.75" y2="15"/><line class="cls-2" x1="19.77" y1="10.23" x2="21.89" y2="8.11"/></svg>