<svg id="Capa_1" data-name="Capa 1" xmlns="http://www.w3.org/2000/svg" viewBox="0 0 30 30"><defs><style>.cls-1{fill:#727272;}.cls-2{fill:#adadad;}.cls-3{fill:#8c8c8c;}.cls-4{fill:#fff;}</style></defs><polygon class="cls-1" points="9.04 13.08 12.72 13.69 15.95 13.38 20.05 13.69 25 23.9 17.28 21.69 11.06 23.9 5 21.69 9.04 13.08"/><polygon class="cls-2" points="19.61 14.74 16.24 14.49 17.52 20.53 23.21 22.16 19.61 14.74"/><polygon class="cls-2" points="9.96 14.3 6.79 21.07 11.34 22.72 12.96 14.8 9.96 14.3"/><polygon class="cls-3" points="12.96 14.8 11.34 22.72 17.52 20.53 16.24 14.49 12.96 14.8"/><path class="cls-4" d="M15,6.1h0a4.25,4.25,0,0,1,3.68,6.38L15,18.86l-3.68-6.38A4.25,4.25,0,0,1,15,6.1Zm0,1.53a2.73,2.73,0,1,0,2.72,2.73A2.72,2.72,0,0,0,15,7.63Z"/></svg>