<svg id="Capa_1" data-name="Capa 1" xmlns="http://www.w3.org/2000/svg" viewBox="0 0 50 50"><defs><style>.cls-1{fill:#fff;}.cls-2{fill:none;stroke:#fff;stroke-linecap:round;stroke-linejoin:round;stroke-width:0.41px;}</style></defs><path class="cls-1" d="M28.22,16.68a.89.89,0,0,0,.82.55h3.33V21a.89.89,0,0,0,1.78,0V17.23h3.33a.89.89,0,0,0,.63-1.52l-4.22-4.22a.89.89,0,0,0-1.26,0l-4.22,4.22A.89.89,0,0,0,28.22,16.68Z"/><path class="cls-1" d="M16.38,38a.9.9,0,0,0,.55-.83V33.81h3.73a.89.89,0,0,0,0-1.78H16.93V28.7a.89.89,0,0,0-1.52-.63l-4.22,4.22a.86.86,0,0,0-.26.63.88.88,0,0,0,.26.63l4.22,4.22A.89.89,0,0,0,16.38,38Z"/><path class="cls-1" d="M19,24.27a.6.6,0,0,0,.67-.13l1.64-1.64,1.84,1.84a.62.62,0,0,0,.88-.88L22.2,21.62,23.84,20a.63.63,0,0,0,.13-.68.61.61,0,0,0-.57-.38H19.24a.58.58,0,0,0-.43.18.6.6,0,0,0-.19.44V23.7A.61.61,0,0,0,19,24.27Z"/><line class="cls-2" x1="33.26" y1="27.71" x2="33.26" y2="33.56"/><line class="cls-2" x1="27.41" y1="27.71" x2="33.26" y2="33.56"/><line class="cls-2" x1="33.26" y1="33.56" x2="27.41" y2="33.56"/></svg>