<svg id="Capa_1" data-name="Capa 1" xmlns="http://www.w3.org/2000/svg" viewBox="0 0 50 50"><defs><style>.cls-1{fill:#fff;}.cls-2{fill:none;stroke:#fff;stroke-linecap:round;stroke-linejoin:round;stroke-width:1.18px;}</style></defs><path class="cls-1" d="M25.37,17.3a.85.85,0,0,0,.79.53h3.17v3.56a.86.86,0,0,0,1.71,0V17.83h3.17A.85.85,0,0,0,35,17.3a.86.86,0,0,0-.18-.93l-4-4a.86.86,0,0,0-1.21,0l-4,4A.86.86,0,0,0,25.37,17.3Z"/><path class="cls-1" d="M15.73,34.39a.85.85,0,0,0,.53-.79V30.43h3.56a.86.86,0,1,0,0-1.71H16.26V25.55a.85.85,0,0,0-.53-.79.86.86,0,0,0-.93.18l-4,4a.86.86,0,0,0,0,1.21l4,4A.86.86,0,0,0,15.73,34.39Z"/><path class="cls-2" d="M26.43,24.47c-.12.4,0,3.6,0,4.35,0,0-1.36-2.42-3-2.42s-.46.8-.46,2.79.3,6.59,10,6.59c5,0,5.6-5.55,5.6-9,0-2.92-1.11-3.45-2.09-3.45S35,23.85,35,24.55a1.25,1.25,0,0,0-1.33-1.18,1.4,1.4,0,0,0-1.48,1.27,1.26,1.26,0,0,0-1.36-1.28c-1.39,0-1.47,1-1.47,1.23,0,0,0-.77-1.05-1.1A1.49,1.49,0,0,0,26.43,24.47Z"/></svg>