<svg id="Capa_1" data-name="Capa 1" xmlns="http://www.w3.org/2000/svg" viewBox="0 0 50 50"><defs><style>.cls-1{fill:#fff;}</style></defs><path class="cls-1" d="M20.19,16.84a.84.84,0,0,0,.78.52h3.18v3.57a.85.85,0,0,0,1.7,0V17.36H29a.85.85,0,0,0,.6-1.45l-4-4a.85.85,0,0,0-1.2,0l-4,4A.84.84,0,0,0,20.19,16.84Z"/><path class="cls-1" d="M20.37,34.28l4,4a.85.85,0,0,0,1.2,0l4-4a.86.86,0,0,0-.6-1.46H25.85V29.26a.85.85,0,0,0-1.7,0v3.56H21a.86.86,0,0,0-.6,1.46Z"/><path class="cls-1" d="M16.74,29.91a.85.85,0,0,0,.53-.79V26h3.56a.86.86,0,0,0,.85-.86.85.85,0,0,0-.85-.85H17.27V21.07a.85.85,0,0,0-.53-.79.87.87,0,0,0-.93.18l-4,4a.86.86,0,0,0,0,1.21l4,4A.85.85,0,0,0,16.74,29.91Z"/><path class="cls-1" d="M34.19,29.72l4-4a.86.86,0,0,0,0-1.21l-4-4a.87.87,0,0,0-.93-.18.85.85,0,0,0-.53.79v3.17H29.17a.85.85,0,0,0-.85.85.86.86,0,0,0,.85.86h3.56v3.17a.85.85,0,0,0,1.46.6Z"/></svg>