<svg id="Capa_1" data-name="Capa 1" xmlns="http://www.w3.org/2000/svg" viewBox="0 0 50 50"><defs><style>.cls-1{fill:#fff;}.cls-2{fill:none;stroke:#fff;stroke-linecap:round;stroke-linejoin:round;stroke-width:1.18px;}</style></defs><path class="cls-1" d="M23.78,16.46a.87.87,0,0,0,.79.53h3.18v3.56a.85.85,0,0,0,1.7,0V17h3.18a.87.87,0,0,0,.79-.53.85.85,0,0,0-.19-.93l-4-4a.84.84,0,0,0-1.2,0l-4,4A.85.85,0,0,0,23.78,16.46Z"/><path class="cls-1" d="M14.15,33.55a.85.85,0,0,0,.52-.79V29.58h3.57a.85.85,0,1,0,0-1.7H14.67V24.7a.86.86,0,0,0-.52-.79.85.85,0,0,0-.93.19l-4,4a.84.84,0,0,0,0,1.2l4,4A.85.85,0,0,0,14.15,33.55Z"/><path class="cls-2" d="M24.84,23.63c-.12.4,0,3.59,0,4.34,0,0-1.37-2.42-3-2.42s-.47.81-.47,2.8.31,6.59,10,6.59c5,0,5.59-5.56,5.59-9,0-2.91-1.11-3.44-2.09-3.44s-1.51.47-1.51,1.18a1.25,1.25,0,0,0-1.33-1.18,1.4,1.4,0,0,0-1.48,1.26,1.24,1.24,0,0,0-1.35-1.27c-1.4,0-1.47,1-1.47,1.23,0,0,0-.78-1.06-1.1A1.48,1.48,0,0,0,24.84,23.63Z"/></svg>