<svg id="Capa_1" data-name="Capa 1" xmlns="http://www.w3.org/2000/svg" viewBox="0 0 50 50"><defs><style>.cls-1{fill:#fff;}.cls-2{fill:none;stroke:#fff;stroke-linecap:round;stroke-linejoin:round;stroke-width:0.41px;}</style></defs><path class="cls-1" d="M26.91,15.39a.88.88,0,0,0,.83.55h3.32v3.73a.89.89,0,0,0,1.78,0V15.94h3.33a.88.88,0,0,0,.82-.55.9.9,0,0,0-.19-1L32.58,10.2A.9.9,0,0,0,32,9.94a.94.94,0,0,0-.63.26L27.1,14.42A.9.9,0,0,0,26.91,15.39Z"/><path class="cls-1" d="M15.07,36.67a.89.89,0,0,0,.55-.82V32.52h3.73a.89.89,0,1,0,0-1.78H15.62V27.41a.89.89,0,0,0-1.52-.63L9.88,31a.89.89,0,0,0,0,1.26l4.22,4.22A.89.89,0,0,0,15.07,36.67Z"/><path class="cls-1" d="M17.7,23a.64.64,0,0,0,.68-.14L20,21.21l1.84,1.84a.62.62,0,0,0,.88-.88l-1.84-1.83,1.64-1.64a.62.62,0,0,0-.44-1.06H17.94a.59.59,0,0,0-.44.18.6.6,0,0,0-.18.44v4.15A.64.64,0,0,0,17.7,23Z"/><line class="cls-2" x1="31.95" y1="26.42" x2="31.95" y2="32.27"/><line class="cls-2" x1="26.1" y1="26.42" x2="31.95" y2="32.27"/><line class="cls-2" x1="31.95" y1="32.27" x2="26.1" y2="32.27"/></svg>