<svg id="Capa_1" data-name="Capa 1" xmlns="http://www.w3.org/2000/svg" viewBox="0 0 50 50"><defs><style>.cls-1{fill:#fff;}</style></defs><path class="cls-1" d="M20.61,16.74a.85.85,0,0,0,.79.53h3.17v3.56a.86.86,0,0,0,1.71,0V17.27h3.17a.85.85,0,0,0,.79-.53.87.87,0,0,0-.18-.93l-4-4a.86.86,0,0,0-1.21,0l-4,4A.85.85,0,0,0,20.61,16.74Z"/><path class="cls-1" d="M20.8,34.19l4,4a.86.86,0,0,0,1.21,0l4-4a.87.87,0,0,0,.18-.93.85.85,0,0,0-.79-.53H26.28V29.17a.86.86,0,0,0-1.71,0v3.56H21.4a.85.85,0,0,0-.6,1.46Z"/><path class="cls-1" d="M17.17,29.81A.85.85,0,0,0,17.7,29V25.85h3.56a.85.85,0,1,0,0-1.7H17.7V21a.86.86,0,0,0-1.46-.6l-4,4a.85.85,0,0,0,0,1.2l4,4A.84.84,0,0,0,17.17,29.81Z"/><path class="cls-1" d="M34.61,29.63l4-4a.84.84,0,0,0,0-1.2l-4-4a.85.85,0,0,0-1.45.6v3.18H29.59a.85.85,0,0,0,0,1.7h3.57V29a.85.85,0,0,0,1.45.6Z"/></svg>