<svg id="Capa_1" data-name="Capa 1" xmlns="http://www.w3.org/2000/svg" viewBox="0 0 50 50"><defs><style>.cls-1{fill:#fff;}</style></defs><path class="cls-1" d="M25,10.25a4.87,4.87,0,0,1,4.86,4.87v8.12H20.14V15.12A4.87,4.87,0,0,1,25,10.25M25,7.5a7.62,7.62,0,0,0-7.62,7.62V26H32.62V15.12A7.62,7.62,0,0,0,25,7.5Z"/><path class="cls-1" d="M33.7,24H16.3a2.18,2.18,0,0,0-2.18,2.17V40.32A2.19,2.19,0,0,0,16.3,42.5H33.7a2.19,2.19,0,0,0,2.18-2.18V26.18A2.18,2.18,0,0,0,33.7,24Zm-5.49,6V31a3.19,3.19,0,0,1-1.14,2.43l-.54,4.91a1.54,1.54,0,0,1-3.06,0l-.54-4.91A3.19,3.19,0,0,1,21.79,31V30a3.21,3.21,0,0,1,6.42,0Z"/></svg>