<svg id="Capa_1" data-name="Capa 1" xmlns="http://www.w3.org/2000/svg" viewBox="0 0 50 50"><defs><style>.cls-1{fill:#fff;}</style></defs><path class="cls-1" d="M30.3,30.25a.94.94,0,0,0-.87-.58H25.94V25.75a.94.94,0,0,0-1.88,0v3.92h-3.5a.92.92,0,0,0-.86.58.94.94,0,0,0,.2,1l4.44,4.43a.92.92,0,0,0,1.32,0l4.44-4.43A.94.94,0,0,0,30.3,30.25ZM25,33.72l-2.17-2.17h4.34Z"/><path class="cls-1" d="M39.24,26.18a3.16,3.16,0,0,1-3.16,3.15h-4a2.94,2.94,0,0,0-2.64-1.66h-1.5v-.21h8.15a1.28,1.28,0,0,0,0-2.56H33.73a.94.94,0,0,1-.89-1.23,1.71,1.71,0,0,0,.09-.55,1.8,1.8,0,0,0-3.05-1.28.94.94,0,0,1-1.52-1,1.7,1.7,0,0,0,.13-.67,1.79,1.79,0,0,0-1.79-1.79,1.75,1.75,0,0,0-1.33.59.95.95,0,0,1-1.57-.28,3.49,3.49,0,0,0-6.72,1,1,1,0,0,1-.34.64.94.94,0,0,1-.7.2h-.2a1.8,1.8,0,0,0-1.79,1.79,1.77,1.77,0,0,0,.4,1.13.95.95,0,0,1-.65,1.53,1.28,1.28,0,0,0,.1,2.55h8.16v.21h-1.5a2.92,2.92,0,0,0-2.64,1.66h-4a3.15,3.15,0,0,1-1.53-5.9,3.65,3.65,0,0,1,3-4.81A5.38,5.38,0,0,1,25,16.9a3.68,3.68,0,0,1,5.35,2.64,3.75,3.75,0,0,1,.82-.09A3.66,3.66,0,0,1,34.8,23h1.28A3.17,3.17,0,0,1,39.24,26.18Z"/></svg>