<svg id="Capa_1" data-name="Capa 1" xmlns="http://www.w3.org/2000/svg" viewBox="0 0 50 50"><defs><style>.cls-1{fill:#fff;}</style></defs><path class="cls-1" d="M31.07,30a.94.94,0,0,0-.87-.57H26.7V25.46a.94.94,0,1,0-1.87,0v3.93h-3.5a.94.94,0,0,0-.87.57,1,1,0,0,0,.21,1l4.43,4.43a.93.93,0,0,0,1.33,0L30.86,31A1,1,0,0,0,31.07,30Zm-5.3,3.47L23.6,31.26h4.33Z"/><path class="cls-1" d="M40,25.89A3.16,3.16,0,0,1,36.85,29h-4a2.94,2.94,0,0,0-2.64-1.66H28.7v-.21h8.15a1.28,1.28,0,0,0,0-2.56H34.5a.94.94,0,0,1-.89-1.23,1.71,1.71,0,0,0,.09-.55,1.8,1.8,0,0,0-3.05-1.28.94.94,0,0,1-1.52-1,1.7,1.7,0,0,0,.13-.67,1.79,1.79,0,0,0-1.79-1.79,1.75,1.75,0,0,0-1.33.59.95.95,0,0,1-1.57-.28,3.49,3.49,0,0,0-6.72,1,1,1,0,0,1-.34.64.94.94,0,0,1-.7.2h-.2A1.8,1.8,0,0,0,14.82,22a1.77,1.77,0,0,0,.4,1.13.95.95,0,0,1-.65,1.53,1.28,1.28,0,0,0,.1,2.55h8.16v.21h-1.5A2.92,2.92,0,0,0,18.69,29h-4a3.15,3.15,0,0,1-1.53-5.9,3.65,3.65,0,0,1,3-4.81,5.38,5.38,0,0,1,9.62-1.72,3.68,3.68,0,0,1,5.35,2.64,3.75,3.75,0,0,1,.82-.09,3.66,3.66,0,0,1,3.66,3.57h1.28A3.17,3.17,0,0,1,40,25.89Z"/></svg>