<svg id="Capa_1" data-name="Capa 1" xmlns="http://www.w3.org/2000/svg" viewBox="0 0 50 50"><defs><style>.cls-1,.cls-3{fill:none;}.cls-1,.cls-2,.cls-3{stroke:#fff;stroke-width:1.06px;}.cls-1{stroke-miterlimit:10;}.cls-2,.cls-3{stroke-linecap:round;stroke-linejoin:round;}</style></defs><path class="cls-1" d="M38.28,32.13h-14A.5.5,0,0,1,24,32L9.71,22.59a.53.53,0,0,1,.29-1l14-.08a.5.5,0,0,1,.29.09l1.18.79-1.31,1.77v2.65h2.65l1.76-2.36,10,6.68A.53.53,0,0,1,38.28,32.13Z"/><polygon class="cls-2" points="25.67 26.84 24.14 26.84 24.14 25.64 25.67 26.84"/><path class="cls-3" d="M34.42,16.66l-5.87,7.82-1.76,2.36H25.67l-1.53-1.2V24.19l1.31-1.77,6-8.06a.53.53,0,0,1,.75-.1l2.14,1.67A.52.52,0,0,1,34.42,16.66Z"/><line class="cls-1" x1="30.46" y1="16.66" x2="33.27" y2="18.85"/></svg>