<svg id="Capa_1" data-name="Capa 1" xmlns="http://www.w3.org/2000/svg" viewBox="0 0 50 50"><defs><style>.cls-1,.cls-3{fill:none;}.cls-1,.cls-2,.cls-3{stroke:#fff;stroke-width:2px;}.cls-1{stroke-miterlimit:10;}.cls-2,.cls-3{stroke-linecap:round;stroke-linejoin:round;}</style></defs><path class="cls-1" d="M39.14,32.39h-14a.6.6,0,0,1-.29-.08l-14.3-9.46a.53.53,0,0,1,.29-1l14-.07a.5.5,0,0,1,.29.09l1.19.78L25,24.45V27.1h2.65l1.76-2.35,10,6.68A.52.52,0,0,1,39.14,32.39Z"/><polygon class="cls-2" points="26.53 27.1 25 27.1 25 25.91 26.53 27.1"/><path class="cls-3" d="M35.28,16.93l-5.87,7.82L27.65,27.1H26.53L25,25.91V24.45l1.32-1.77,6-8a.52.52,0,0,1,.75-.1l2.14,1.66A.54.54,0,0,1,35.28,16.93Z"/><line class="cls-1" x1="31.32" y1="16.92" x2="34.13" y2="19.11"/></svg>