<?xml version="1.0" encoding="utf-8"?>
<!-- Generator: Adobe Illustrator 25.4.1, SVG Export Plug-In . SVG Version: 6.00 Build 0)  -->
<svg version="1.1" id="Capa_1" xmlns="http://www.w3.org/2000/svg" xmlns:xlink="http://www.w3.org/1999/xlink" x="0px" y="0px"
	 viewBox="0 0 50 50" style="enable-background:new 0 0 50 50;" xml:space="preserve">
<style type="text/css">
	.st0{fill:#FFFFFF;}
</style>
<g>
	<g>
		<path class="st0" d="M41.2,26.3c0,9.03-7.38,16.33-16.44,16.2c-8.74-0.12-15.87-7.26-15.97-16c-0.08-6.93,4.18-12.87,10.24-15.27
			c0.53-0.21,1.11,0.19,1.11,0.76v1.77c0,0.32-0.19,0.6-0.47,0.74c-4.57,2.07-7.74,6.72-7.63,12.09c0.14,6.74,5.51,12.3,12.24,12.67
			c7.47,0.4,13.68-5.56,13.68-12.94c0-5.25-3.13-9.77-7.63-11.81c-0.29-0.13-0.47-0.42-0.47-0.74v-1.77c0-0.57,0.57-0.97,1.1-0.76
			C36.96,13.6,41.2,19.45,41.2,26.3z"/>
	</g>
	<g>
		<path class="st0" d="M26.62,8.31v17.34c0,0.45-0.36,0.81-0.81,0.81h-1.62c-0.45,0-0.81-0.36-0.81-0.81V8.31
			c0-0.45,0.36-0.81,0.81-0.81h1.62C26.26,7.5,26.62,7.86,26.62,8.31z"/>
	</g>
</g>
</svg>
