<svg id="Capa_1" data-name="Capa 1" xmlns="http://www.w3.org/2000/svg" viewBox="0 0 50 50"><defs><style>.cls-1{fill:#fff;}</style></defs><rect class="cls-1" x="31.58" y="16.57" width="5.03" height="2.48"/><rect class="cls-1" x="31.58" y="20.2" width="5.03" height="2.48"/><rect class="cls-1" x="31.58" y="23.84" width="5.03" height="2.48"/><rect class="cls-1" x="31.58" y="27.48" width="5.03" height="2.48"/><rect class="cls-1" x="31.58" y="31.11" width="5.03" height="2.48"/><path class="cls-1" d="M38.54,14.25H27.92V11H25.77L10.3,13.47v23L25.77,39h2.15V35.91H38.54a1.16,1.16,0,0,0,1.16-1.16V15.41A1.16,1.16,0,0,0,38.54,14.25ZM22.68,30.42H20.5l-1.83-4.18h0l-1.83,4.18H14.94l2.62-5.58-3.24-5.18h2.77l1.61,3.61,1.84-3.61h2.14L20,25.25Zm16.25,4.33a.4.4,0,0,1-.39.39H28.33V33.59h2.24V31.11H28.33V30h2.24V27.48H28.33V26.32h2.24V23.84H28.33V22.68h2.24V20.2H28.33V19h2.24V16.57H28.33V15H38.54a.39.39,0,0,1,.39.39Z"/></svg>