<svg id="Capa_1" data-name="Capa 1" xmlns="http://www.w3.org/2000/svg" viewBox="0 0 50 50"><defs><style>.cls-1{fill:#fff;}</style></defs><rect class="cls-1" x="30.64" y="17.62" width="4.4" height="2.17"/><rect class="cls-1" x="30.64" y="20.8" width="4.4" height="2.17"/><rect class="cls-1" x="30.64" y="23.98" width="4.4" height="2.17"/><rect class="cls-1" x="30.64" y="27.17" width="4.4" height="2.17"/><rect class="cls-1" x="30.64" y="30.35" width="4.4" height="2.17"/><path class="cls-1" d="M36.74,15.59H27.45V12.74H25.56L12,14.91V35.07l13.54,2.19h1.89V34.55h9.29a1,1,0,0,0,1-1V16.6A1,1,0,0,0,36.74,15.59ZM22.86,29.74H21l-1.6-3.66h0l-1.6,3.66H16.08l2.3-4.88-2.84-4.53H18l1.42,3.15L21,20.33h1.88l-2.37,4.89Zm14.22,3.79a.34.34,0,0,1-.34.34H27.8V32.52h2V30.35h-2v-1h2V27.17h-2v-1h2V24h-2V23h2V20.8h-2v-1h2V17.62h-2V16.26h8.94a.35.35,0,0,1,.34.34Z"/></svg>