<svg id="Capa_1" data-name="Capa 1" xmlns="http://www.w3.org/2000/svg" viewBox="0 0 50 50"><defs><style>.cls-1{fill:#fff;}.cls-2{fill:none;stroke:#fff;stroke-linecap:round;stroke-miterlimit:10;stroke-width:0.97px;}</style></defs><path class="cls-1" d="M13.8,35.14H11.92a1,1,0,0,0-1,1V40H14.8V36.14A1,1,0,0,0,13.8,35.14Z"/><path class="cls-1" d="M18.66,31.5H16.78a1,1,0,0,0-1,1V40h3.88V32.5A1,1,0,0,0,18.66,31.5Z"/><path class="cls-1" d="M23.51,27.86H21.63a1,1,0,0,0-1,1V40h3.88V28.86A1,1,0,0,0,23.51,27.86Z"/><path class="cls-1" d="M28.37,24.22H26.49a1,1,0,0,0-1,1V40h3.88V25.22A1,1,0,0,0,28.37,24.22Z"/><path class="cls-1" d="M33.22,20.58H31.34a1,1,0,0,0-1,1V40h3.88V21.58A1,1,0,0,0,33.22,20.58Z"/><polyline class="cls-2" points="10.58 11.11 10.58 40 39.42 40"/><polygon class="cls-1" points="32.85 12.38 11.16 33.45 32.22 11.76 32.85 12.38"/><path class="cls-1" d="M34.61,10A14.59,14.59,0,0,1,30,11.3l2.23,1,1,2.23A14.59,14.59,0,0,1,34.61,10Z"/></svg>