<svg id="Capa_1" data-name="Capa 1" xmlns="http://www.w3.org/2000/svg" viewBox="0 0 50 50"><defs><style>.cls-1{fill:#fff;}</style></defs><path class="cls-1" d="M21.91,37.28a3.85,3.85,0,0,0,6.22,0,16.13,16.13,0,0,1-3.13.31A15.72,15.72,0,0,1,21.91,37.28Z"/><path class="cls-1" d="M21.1,34.67v.17a4.34,4.34,0,0,0,.15,1.09,14.94,14.94,0,0,0,3.75.48,14.65,14.65,0,0,0,3.77-.49,3.85,3.85,0,0,0,.13-1v-.28a13.63,13.63,0,0,1-7.8,0Z"/><path class="cls-1" d="M21.1,32.21v1.24a12.58,12.58,0,0,0,7.8,0V32.21a11.21,11.21,0,0,1-7.8,0Z"/><path class="cls-1" d="M31.41,26h0l.21-.31h0l.18-.31v0c.06-.1.11-.2.16-.3l0,0c0-.1.1-.2.14-.3l0-.05a1.88,1.88,0,0,0,.12-.3l0-.06c0-.1.07-.2.1-.3a.14.14,0,0,0,0-.07c0-.1.06-.2.09-.3a.19.19,0,0,0,0-.07c0-.1.05-.2.07-.3a.29.29,0,0,0,0-.09l.06-.29s0-.06,0-.1,0-.2,0-.3a.28.28,0,0,0,0-.09l0-.32V22c0-.14,0-.27,0-.41h0v0c0-.13,0-.26,0-.39a.66.66,0,0,0,0-.14,2.11,2.11,0,0,0,0-.26,1,1,0,0,0,0-.17l0-.23,0-.17a1.7,1.7,0,0,0,0-.22c0-.06,0-.11,0-.17s0-.14-.05-.21l0-.17-.06-.21a1.42,1.42,0,0,1,0-.16l-.08-.21-.06-.15-.08-.21a1,1,0,0,1-.07-.15,2,2,0,0,0-.1-.21L31.92,18a2.12,2.12,0,0,0-.11-.21l-.07-.13-.12-.2-.09-.13a2.14,2.14,0,0,0-.13-.19L31.32,17l-.14-.19-.09-.12-.16-.18-.09-.11-.16-.18-.1-.1c-.06-.06-.11-.12-.17-.17l-.1-.1-.19-.16-.1-.09-.19-.16-.11-.08-.2-.15-.11-.08L29.2,15,29.09,15l-.23-.13-.1-.06-.24-.12-.11-.06-.25-.11-.1-.05-.27-.11-.09,0-.32-.11-.05,0c-.25-.08-.51-.14-.77-.2l-.1,0-.29,0-.15,0-.25,0H24.44c-.22,0-.45,0-.67.07h0a7.79,7.79,0,0,0-6.48,6.76v0c0,.23,0,.46-.05.7v.09s0,.08,0,.12,0,.12,0,.19v.11c0,.1,0,.21,0,.32a.28.28,0,0,0,0,.09c0,.11,0,.23,0,.34v.06c0,.13,0,.26.07.38v0a7.8,7.8,0,0,0,2.32,4.18,4.79,4.79,0,0,1,1.43,3.47V31a10.26,10.26,0,0,0,7.8,0v-.2a5,5,0,0,1,1.52-3.56A7.79,7.79,0,0,0,31.41,26Z"/><path class="cls-1" d="M25.53,12.89V11a.54.54,0,0,0-1.07,0v1.88l.54,0Z"/><path class="cls-1" d="M20.18,14.33a8.65,8.65,0,0,1,.93-.54l-.94-1.63a.54.54,0,0,0-.73-.19.53.53,0,0,0-.2.73Z"/><path class="cls-1" d="M15.56,16.77l1.63.94a8.65,8.65,0,0,1,.54-.93l-1.64-.94a.53.53,0,0,0-.72.2A.54.54,0,0,0,15.56,16.77Z"/><path class="cls-1" d="M34.44,26.43l-1.63-.94a8.65,8.65,0,0,1-.54.93l1.63.94a.54.54,0,0,0,.27.07.51.51,0,0,0,.46-.27A.54.54,0,0,0,34.44,26.43Z"/><path class="cls-1" d="M16.27,21.6c0-.18,0-.36,0-.53H14.41a.54.54,0,1,0,0,1.07h1.88C16.28,22,16.27,21.78,16.27,21.6Z"/><path class="cls-1" d="M35.59,21.07H33.71c0,.17,0,.35,0,.53s0,.36,0,.54h1.88a.54.54,0,0,0,0-1.07Z"/><path class="cls-1" d="M34.44,16.77a.54.54,0,0,0-.54-.93l-1.63.94a8.65,8.65,0,0,1,.54.93Z"/><path class="cls-1" d="M15.56,26.43a.54.54,0,0,0-.19.73.51.51,0,0,0,.46.27.48.48,0,0,0,.26-.07l1.64-.94a8.65,8.65,0,0,1-.54-.93Z"/><path class="cls-1" d="M30.76,12.7a.54.54,0,0,0-.93-.54l-.94,1.63a8.65,8.65,0,0,1,.93.54Z"/></svg>