<svg id="Capa_1" data-name="Capa 1" xmlns="http://www.w3.org/2000/svg" viewBox="0 0 50 50"><defs><style>.cls-1{fill:#fff;}.cls-2,.cls-3{fill:none;stroke:#fff;stroke-miterlimit:10;}.cls-2{stroke-width:2px;}.cls-3{stroke-linecap:round;stroke-width:1.83px;}</style></defs><path class="cls-1" d="M25.5,13.32a11,11,0,0,1,6.44,19.94A7.22,7.22,0,0,0,29,39.14v1.69a3.5,3.5,0,0,1-3.5,3.49h-.19a3.71,3.71,0,0,1-3.3-3.8V39.14a7.24,7.24,0,0,0-3-5.89,11,11,0,0,1,.28-18,11.22,11.22,0,0,1,6.17-1.89m0-2a13,13,0,0,0-7.62,23.55A5.25,5.25,0,0,1,20,39.14v1.38a5.7,5.7,0,0,0,5.2,5.79h.29A5.49,5.49,0,0,0,31,40.83V39.14a5.23,5.23,0,0,1,2.11-4.26A13,13,0,0,0,25.5,11.32Z"/><line class="cls-2" x1="20.51" y1="38.54" x2="30.5" y2="38.54"/><line class="cls-2" x1="21.51" y1="42.2" x2="29.5" y2="42.2"/><line class="cls-3" x1="25.5" y1="8.68" x2="25.5" y2="3.68"/><line class="cls-3" x1="33.18" y1="11" x2="35.68" y2="6.67"/><line class="cls-3" x1="38.67" y1="16.86" x2="43" y2="14.36"/><line class="cls-3" x1="40.5" y1="24.68" x2="45.5" y2="24.68"/><line class="cls-3" x1="38.17" y1="32.36" x2="42.5" y2="34.86"/><line class="cls-3" x1="17.68" y1="10.5" x2="15.18" y2="6.17"/><line class="cls-3" x1="11.83" y1="15.99" x2="7.5" y2="13.49"/><line class="cls-3" x1="9.5" y1="23.68" x2="4.5" y2="23.68"/><line class="cls-3" x1="11.33" y1="31.49" x2="7" y2="33.99"/></svg>