<svg id="Capa_1" data-name="Capa 1" xmlns="http://www.w3.org/2000/svg" viewBox="0 0 50 50"><defs><style>.cls-1{fill:none;stroke:#fff;stroke-linecap:round;stroke-linejoin:round;stroke-width:1.25px;}</style></defs><polyline class="cls-1" points="37.13 25.39 41.17 25.39 41.17 31.48 8.83 31.48 8.83 25.41 13.04 25.41"/><path class="cls-1" d="M30.13,17.74a13.9,13.9,0,0,0-10.34,0l-.28.11v3.44l.28-.11a13.9,13.9,0,0,1,10.34,0l.29.11V17.85Z"/><path class="cls-1" d="M30.41,21.29V31.48H19.51V21.29l.28-.11a13.9,13.9,0,0,1,10.34,0Z"/><polyline class="cls-1" points="30.41 21.29 35.1 19.33 35.1 31.48"/><polyline class="cls-1" points="37.13 31.46 37.13 23.37 35.1 19.33"/><polyline class="cls-1" points="19.51 21.29 14.89 19.33 14.89 31.48"/><polyline class="cls-1" points="13.04 31.48 13.04 23.37 14.89 19.33"/><rect class="cls-1" x="22.98" y="27.42" width="4.04" height="4.04"/></svg>