<svg id="Capa_1" data-name="Capa 1" xmlns="http://www.w3.org/2000/svg" viewBox="0 0 50 50"><defs><style>.cls-1{fill:none;stroke:#fff;stroke-linecap:round;stroke-linejoin:round;stroke-width:0.86px;}</style></defs><polyline class="cls-1" points="37.13 25.37 41.17 25.37 41.17 31.45 8.83 31.45 8.83 25.38 13.04 25.38"/><path class="cls-1" d="M30.13,17.71a14,14,0,0,0-10.34,0l-.28.11v3.44l.28-.11a14,14,0,0,1,10.34,0l.29.11V17.82Z"/><path class="cls-1" d="M30.41,21.26V31.45H19.51V21.26l.28-.11a14,14,0,0,1,10.34,0Z"/><polyline class="cls-1" points="30.41 21.26 35.1 19.3 35.1 31.45"/><polyline class="cls-1" points="37.13 31.43 37.13 23.35 35.1 19.3"/><polyline class="cls-1" points="19.51 21.26 14.89 19.3 14.89 31.45"/><polyline class="cls-1" points="13.04 31.45 13.04 23.35 14.89 19.3"/><rect class="cls-1" x="22.98" y="27.39" width="4.04" height="4.04"/></svg>