<svg id="Capa_1" data-name="Capa 1" xmlns="http://www.w3.org/2000/svg" viewBox="0 0 50 50"><defs><style>.cls-1,.cls-2{fill:#fff;}.cls-2{font-size:11.91px;font-family:OpenSans-ExtraBold, Open Sans;font-weight:800;}</style></defs><path class="cls-1" d="M25.33,10.89a8.18,8.18,0,1,0,8.18,8.18A8.19,8.19,0,0,0,25.33,10.89Zm-3.7,2.19c4.59,0,7.82,7,11.05,7a3.23,3.23,0,0,0,.46,0,8,8,0,0,1-.3,1.39c-5.37-.77-9.83-6.05-12.15-6.05a3.93,3.93,0,0,0-3,2,7.87,7.87,0,0,1,2-3.68A3.9,3.9,0,0,1,21.63,13.08Zm11.28,3.86c-.2.34-.46.62-.75.62-1.57,0-2.92-5.84-8.24-5.84a11.53,11.53,0,0,0-1.7.12,7.88,7.88,0,0,1,10.69,5.1Zm-2.15,7.82a10.9,10.9,0,0,1-4,.72c-2.09,0-3.1-.73-4.21-.73-.57,0-.68.75-.47,1.48a8,8,0,0,1-3.89-3.88,1.3,1.3,0,0,1,1.06-.62c1.87,0,8.75,4.18,12.94,1.23A8.18,8.18,0,0,1,30.76,24.76Z"/><text class="cls-2" transform="translate(12.01 38.37)">KML</text></svg>