<?xml version="1.0" encoding="utf-8"?>
<!-- Generator: Adobe Illustrator 25.4.1, SVG Export Plug-In . SVG Version: 6.00 Build 0)  -->
<svg version="1.1" id="Capa_1" xmlns="http://www.w3.org/2000/svg" xmlns:xlink="http://www.w3.org/1999/xlink" x="0px" y="0px"
	 viewBox="0 0 50 50" style="enable-background:new 0 0 50 50;" xml:space="preserve">
<style type="text/css">
	.st0{fill:#DC1C00;}
</style>
<g>
	<g>
		<path class="st0" d="M31.7,49H12c-4.4,0-7.9-3.6-7.9-7.9V8.9C4.1,4.6,7.7,1,12,1h19.7v2.7H12C9.2,3.7,6.8,6,6.8,8.9v32.2
			c0,2.9,2.3,5.2,5.2,5.2h19.7V49z"/>
	</g>
	<g>
		<path class="st0" d="M45.5,24.2L32.9,11.6c-0.8-0.8-2.3-0.2-2.3,1l0,10.9l-15.3,0c-0.8,0-1.6,0.6-1.7,1.4c-0.2,1,0.6,1.9,1.6,1.9
			h15.4l0,11.1c0,1.2,1.5,1.8,2.3,1l12.6-12.6C46,25.6,46,24.7,45.5,24.2z"/>
	</g>
</g>
</svg>
