<svg id="Capa_1" data-name="Capa 1" xmlns="http://www.w3.org/2000/svg" viewBox="0 0 50 50"><defs><style>.cls-1{fill:#fff;}.cls-2,.cls-3{fill:none;stroke-miterlimit:10;}.cls-2{stroke:#fcb23b;stroke-width:2.03px;}.cls-3{stroke:#fff;stroke-width:0.72px;}.cls-4{fill:#fcb23b;}</style></defs><polygon class="cls-1" points="25.72 14.36 25.71 14.37 25.71 14.36 25.71 14.35 25.72 14.36"/><path class="cls-1" d="M49,19.43q-.16-.51-.36-1a4.53,4.53,0,0,0-.64,0,.9.9,0,0,0-.51.15c-.06.07,0,.34.12.47.32.44.06.8-.13,1.18-.12-.23-.06-.55-.19-.68A1.26,1.26,0,0,1,47.07,18c-.39-.05-.78-.22-1-.1a1.05,1.05,0,0,1-1.25,0c-.36-.23-.63.11-.76.39s.16.42.43.52.51.27.53.44a9.26,9.26,0,0,1,0,1.58c0,.07-.13.17-.22.21-.66.26-.75.52-.45,1.12.07.14,0,.34,0,.51-.12-.1-.33-.19-.35-.31-.11-.77-.87-.78-1.24-1.24l-.15.09c.28.83.57,1.65.85,2.45-.25.18-.43.35-.64.48a2.48,2.48,0,0,1-.76.42c-.28.06-.61-.06-.91,0a.71.71,0,0,0-.47.27c-.07.1,0,.32.08.47s.25.36.32.56.12.63-.25.7-.77.46-1-.21a4.29,4.29,0,0,0-.37-.68c-.41.49-.17.88-.06,1.26s.37.72.35,1.06a3.31,3.31,0,0,0,.1,2.08,1.21,1.21,0,0,1-.55-.52c-.35-.8-.66-1.62-1-2.51l.76.34a6.27,6.27,0,0,0-1-3.54c-.16-.32-.56-.26-.8,0a1.31,1.31,0,0,1-.59.49A1,1,0,0,0,36,25.79a1.76,1.76,0,0,1,0,.6h-.19a6.79,6.79,0,0,1-1-2.5,2.48,2.48,0,0,0-.6-1.35,1.18,1.18,0,0,0-2,.08c-.07.1-.16.23-.26.25a17.87,17.87,0,0,1-2.06.41c-.42,0-.57.18-.5.65a1.49,1.49,0,0,1,.47-.15,6.38,6.38,0,0,1,.76.15,1.88,1.88,0,0,1-.16.64,2.69,2.69,0,0,1-.63.58c-.58.42-1.19.82-1.77,1.25a.61.61,0,0,0-.23.84,1.13,1.13,0,0,1-.71,1.57,1.36,1.36,0,0,0-1,.93.8.8,0,0,1-.19.32,3.21,3.21,0,0,1-2.48,1.21c-.6,0-.69,0-.69-.36,0-.1,0-.23,0-.4a8.67,8.67,0,0,0-.26-2.15,1.18,1.18,0,0,1,.09-1.07,2,2,0,0,0,.21-2.15,1,1,0,0,1,.07-1,2,2,0,0,0,.11-.79l-.33.07-.26.08a.93.93,0,0,1-.06-.24c-.07-.65-.1-.66-.64-.38a3.23,3.23,0,0,1-2.13-.44,1.26,1.26,0,0,1-.16-.33,9.1,9.1,0,0,1-.48-.93,1.62,1.62,0,0,1-.12-.78c0-.35.24-.67.32-1a1.57,1.57,0,0,1,1-1.34.81.81,0,0,0,.73-.71l.13.14.75-.64h0c.25.27.52.08.78.05h.1c.49.05,1,.19,1.45.23s.54.24.45.65a.57.57,0,0,0,.15.46,2.21,2.21,0,0,0,.57.49c.15.08.41.15.5.08.28-.25.51-.16.79,0a9.15,9.15,0,0,0,1.25.63.59.59,0,0,0,.82-.4c.14-.41-.1-.6-.47-.68a3.86,3.86,0,0,1-.59-.12,3,3,0,0,1-.46-.26c.15-.08.3-.16.46-.23a3.24,3.24,0,0,1,.34-.12c-.66-.48-1-.48-1.59,0a5.3,5.3,0,0,0-.46-1,5.75,5.75,0,0,0-.8-.76L25,16l.62.94-.44.39a8.84,8.84,0,0,0-.3-.87.89.89,0,0,0-1.36-.4,4.22,4.22,0,0,1-1,.69,2.86,2.86,0,0,1-.67.17h0c-.15-.13-.3-.27-.46-.43a1,1,0,0,0,.07-.18c.11-.53.16-.73.39-.75a2.15,2.15,0,0,1,.56.09.61.61,0,0,0,.49-.11c.08-.06,0-.28,0-.42a1.4,1.4,0,0,0-.09-.31l2.09-.8a1.61,1.61,0,0,0,1.84.28c.35-.19.69-.4,1-.58l-.81-.44c.17-.23.35-.47.55-.71-.55-.18-.91.2-1.33.5,0,.09.11.18.11.25s0,.38-.13.43a.67.67,0,0,1-.52,0,8.73,8.73,0,0,1-.8-.42c-.13-.06-.17-.23-.22-.41-.1-.39,0-.58.46-.49a.88.88,0,0,0,1-.46.61.61,0,0,1,.4-.31,4.09,4.09,0,0,1,2.69.86,1.86,1.86,0,0,1,.35.47l.29.38.33-.82c.06.27.09.41.09.44l2.57.15c.06-.58.15-.61.74-.33a3.41,3.41,0,0,0,1,.27c.4,0,.6-.31.45-.69-.06-.13-.12-.27-.23-.54.47.24.8.43,1.15.58.67.3,1.18.91,2,.93,0,0,0,0,0,0a2.53,2.53,0,0,0,2.23.87c.13,0,.27.21.41.29s.56.39.74.33a1.88,1.88,0,0,1,1.8.27,9.17,9.17,0,0,0,3.18,1.2,2.78,2.78,0,0,1,1.8.85s.06,0,.09,0v0A16.51,16.51,0,0,1,49,19.43Z"/><path class="cls-1" d="M46.34,33.89a15.61,15.61,0,0,1-2.47,2.54,1.32,1.32,0,0,1-1.34-1.31.65.65,0,0,0-.46-.42c-.82-.07-1.65-.1-2.47-.1-.27,0-.53.07-.58-.29s.71-1,1-1c.43,0,.51-.2.38-.56-.18-.51,0-.67.51-.7.21,0,.51,0,.62-.08.71-.79,1.74-.38,2.57-.72.25-.1.7,0,.57.45s.06.47.27.52a.69.69,0,0,0,.53-.17,1.92,1.92,0,0,0,.35-.51H46c.05.42.08.84.15,1.26S46.26,33.47,46.34,33.89Z"/><path class="cls-1" d="M14.53,14.27A2.84,2.84,0,0,0,15,14.1a1.46,1.46,0,0,0-.32-.41,3.75,3.75,0,0,0-.67-.24c-.12.17-.23.29-.31.43a1.09,1.09,0,0,0-.1.32,3.43,3.43,0,0,0,.34.06A2.72,2.72,0,0,0,14.53,14.27Z"/><path class="cls-1" d="M17.61,12.38l.28-.46-3.69-.2c0,.06,0,.11,0,.17l.82.22-1,.4-.45-.25c0,.19,0,.31.06.45h-.48c.1.28.19.51.24.64-.12.36-.23.66-.34,1l.46.34-.38.83a.38.38,0,0,1-.14.14c-.31.17-.63.32-1,.5,0,0-.06,0-.06-.07,0-.46-.27-.65-.67-.78-.16-.06-.41-.26-.4-.36a.73.73,0,0,1,.37-.47,4.94,4.94,0,0,1,1.09-.25c.33,0,.61-.15.59-.5a5.24,5.24,0,0,0-.3-1c-.14.06-.32.08-.41.18-.25.25-.43.6-.86.53-.07,0-.18-.22-.17-.23.19-.17.4-.33.6-.5l.28-.23a2.44,2.44,0,0,0-.43-.21,1.32,1.32,0,0,0-.56,0H9.78l-.79,0-.06.25,1.16.69c-.29,0-.52.1-.58,0-.68-.77-1.57-.54-2.41-.56a2.21,2.21,0,0,1-.51-.11c-.78-.18-1.55-.4-2.34-.52a4.17,4.17,0,0,0-1.19.17.38.38,0,0,0-.2.16c-.31.54-.37.57-.94.2-.32.31-.63.63-.92,1,.18.26.34.47.52.72l1-.32,0-.08a8.58,8.58,0,0,0,.87-.1A1.07,1.07,0,0,1,4.52,15a5.89,5.89,0,0,0,.2,1.38A2.43,2.43,0,0,0,3.65,18a1,1,0,0,0,.28.9,4.47,4.47,0,0,1,1.41,2.61,1.27,1.27,0,0,0,1.17.93A1.77,1.77,0,0,1,8.27,23.6a1.39,1.39,0,0,0,1.53.88A1.81,1.81,0,0,1,8.53,26c.09.18.18.32.26.47-.51.43-.5.42-.06,1a.88.88,0,0,1,.24.63c-.22.65.22,1,.53,1.42a1.63,1.63,0,0,0,.33.36c.42.33.38.71.25,1.17A19.22,19.22,0,0,0,9.41,34c-.09.71.17,1.46.1,2.18A2.71,2.71,0,0,0,10.28,38a.75.75,0,0,0,1,.28,7.39,7.39,0,0,1-.52-.76.89.89,0,0,1-.06-.56c.14-.62.32-1.23.47-1.79l.45-.14A1.44,1.44,0,0,1,12,35a.56.56,0,0,0,.58-.34,7.39,7.39,0,0,1,1-1c.2-.22.46-.46.49-.71s.26-.48.53-.46a1.13,1.13,0,0,0,1.32-1,4.21,4.21,0,0,1,.93-1.31c.55-.66.54-1-.16-1.52s-1.19-.81-1.77-1.23a.57.57,0,0,1-.18-.36,1.93,1.93,0,0,0-1.09-1.52,1.12,1.12,0,0,1-.39-.36c-.27-.39-.45-.84-1.1-.72-.16,0-.39-.27-.57-.45s-.35-.18-.63-.16c-.62,0-1.12.63-1.8.32-.27-.13-.42-.25-.35-.56.14-.71.14-.71-.59-.93A4.15,4.15,0,0,0,8.36,22a2.63,2.63,0,0,0-.06-.48,3.68,3.68,0,0,0-.35.33,1.06,1.06,0,0,0-.14.3c-.28-.34-1,.19-1-.44,0-.47-.32-1.1.3-1.47a1.11,1.11,0,0,1,1.32,0c.16-.39.36-.36.66-.13a2.07,2.07,0,0,0,.71.16c0,.22.06.51.09.8H10a5.22,5.22,0,0,1,.15-.88.66.66,0,0,1,.35-.41c.54-.17,1-.4,1.06-1,0-.12.21-.32.31-.31A1.45,1.45,0,0,0,13,18c.3-.23.82-.18,1.22-.24-.08-.24-.19-.53-.29-.83h1.44c0,.1-.16.44-.07.52a2.41,2.41,0,0,0,.82.29c-.22-.4-.37-.66-.53-1l.66-.26c-.58-.29-.91-.65-.77-1.34l-.63.33c-.23-.34-.44-.66-.67-1,.52-.13,1.13.74,1.54-.08l.65.1.09-.15a4.21,4.21,0,0,0-1.78-1.46l.67-.27a3.53,3.53,0,0,1,.56-.14c.34-.05.76-.49,1,.22,0,.11.36.12.53.21.48.27.88.6.7,1.27l-.56.07a4.75,4.75,0,0,0,.17.74c.31.78.75.83,1.28.19a.81.81,0,0,1,.37-.3,11.6,11.6,0,0,1,2.07-.39c.49,0,.71-.14.72-.66.48.15.78,0,.84-.49,0-.09.28-.15.5-.26C21.63,11.78,19.67,12,17.61,12.38ZM14.7,13.69a1.46,1.46,0,0,1,.32.41,2.84,2.84,0,0,1-.49.17,2.72,2.72,0,0,1-.57,0,3.43,3.43,0,0,1-.34-.06,1.09,1.09,0,0,1,.1-.32c.08-.14.19-.26.31-.43A3.75,3.75,0,0,1,14.7,13.69Z"/><path class="cls-1" d="M26.55,16.88h0Z"/><circle class="cls-2" cx="31.73" cy="23.76" r="6.26"/><circle class="cls-3" cx="31.73" cy="23.76" r="6.26"/><path class="cls-2" d="M31.73,26.64a2.88,2.88,0,1,1,2.88-2.88A2.88,2.88,0,0,1,31.73,26.64Z"/><path class="cls-3" d="M31.73,26.64a2.88,2.88,0,1,1,2.88-2.88A2.88,2.88,0,0,1,31.73,26.64Z"/><path class="cls-4" d="M40.27,34a1.42,1.42,0,0,1-1-.42l-2.14-2.14-1.87,1.87a1.39,1.39,0,0,1-1,.41h0a1.49,1.49,0,0,1-.55-.1,1.43,1.43,0,0,1-.88-1.32V26.5a1.38,1.38,0,0,1,.42-1,1.41,1.41,0,0,1,1-.42H40a1.42,1.42,0,0,1,1,2.43l-1.87,1.87,2.15,2.14a1.43,1.43,0,0,1-1,2.43Z"/><path class="cls-1" d="M33.92,33a.84.84,0,0,0,.93-.18l2.27-2.27,2.54,2.54a.86.86,0,1,0,1.22-1.21l-2.54-2.54,2.26-2.27A.86.86,0,0,0,40,25.64H34.25a.86.86,0,0,0-.61.25.88.88,0,0,0-.25.61v5.75A.85.85,0,0,0,33.92,33Z"/></svg>