<svg id="Capa_1" data-name="Capa 1" xmlns="http://www.w3.org/2000/svg" viewBox="0 0 50 50"><defs><style>.cls-1{fill:#fff;}</style></defs><path class="cls-1" d="M26.65,19.06c0,2.07-2.92,6.75-4.21,8.73a.74.74,0,0,1-1.23,0c-1.3-2-4.21-6.66-4.21-8.73a4.83,4.83,0,0,1,9.65,0Zm-1.93,0A2.9,2.9,0,1,0,21.82,22,2.89,2.89,0,0,0,24.72,19.06Z"/><path class="cls-1" d="M37.78,22.59,32.2,34.23H10.53l6.06-11.64h0c.32.7.68,1.44,1.09,2.18l-3.89,7.46H30.94l3.66-7.64H26c.39-.72.73-1.39,1-2Z"/><path class="cls-1" d="M28.88,17.66l1.39-1a9.75,9.75,0,0,1,1.62-.8,5,5,0,0,1,3.69-.08A6.11,6.11,0,0,1,38.26,18a10.42,10.42,0,0,1,1.44,2.89.25.25,0,0,1-.16.32.26.26,0,0,1-.3-.12v0a10,10,0,0,0-1.77-2.39,4.78,4.78,0,0,0-2.34-1.35,3.17,3.17,0,0,0-2.34.5,8.75,8.75,0,0,0-1.06.78l-.95,1-.11.11a1.35,1.35,0,0,1-2-1.86A.69.69,0,0,1,28.88,17.66Z"/><path class="cls-1" d="M31.48,20.54l-3.65-.28.28-3.65a.49.49,0,0,1,.85-.28l2.92,3.41A.48.48,0,0,1,31.48,20.54Z"/></svg>