<svg id="Capa_1" data-name="Capa 1" xmlns="http://www.w3.org/2000/svg" viewBox="0 0 50 50"><defs><style>.cls-1{fill:#fff;}</style></defs><polygon class="cls-1" points="16.1 16 29.45 16 29.45 14.94 15.04 14.94 15.04 29.36 16.1 29.36 16.1 16"/><polygon class="cls-1" points="33.98 33.9 20.17 33.9 20.17 34.96 35.04 34.96 35.04 20.09 33.98 20.09 33.98 33.9"/><path class="cls-1" d="M30.28,12.25a.51.51,0,0,0-.24.95l2.4,1.29-5.1,8,.13.13,8-5.1L36.8,20a.51.51,0,0,0,1-.24V12.25Z"/><path class="cls-1" d="M20,36.8l-2.4-1.28,5.18-8.13-.13-.13-8.13,5.18L13.2,30a.51.51,0,0,0-.95.24v7.47h7.47A.51.51,0,0,0,20,36.8Z"/></svg>