<?xml version="1.0" encoding="utf-8"?>
<!-- Generator: Adobe Illustrator 25.4.1, SVG Export Plug-In . SVG Version: 6.00 Build 0)  -->
<svg version="1.1" id="Capa_1" xmlns="http://www.w3.org/2000/svg" xmlns:xlink="http://www.w3.org/1999/xlink" x="0px" y="0px"
	 viewBox="0 0 60 50" style="enable-background:new 0 0 60 50;" xml:space="preserve">
<style type="text/css">
	.st0{fill:#525252;}
</style>
<g>
	<path class="st0" d="M6.8,0.8h46.4c3.2,0,5.8,2.6,5.8,5.8v0c0,3.2-2.6,5.8-5.8,5.8H6.8C3.6,12.4,1,9.8,1,6.6v0
		C1,3.4,3.6,0.8,6.8,0.8z"/>
	<path class="st0" d="M6.8,19.2h46.4c3.2,0,5.8,2.6,5.8,5.8v0c0,3.2-2.6,5.8-5.8,5.8H6.8C3.6,30.8,1,28.2,1,25v0
		C1,21.8,3.6,19.2,6.8,19.2z"/>
	<path class="st0" d="M6.8,37.6h46.4c3.2,0,5.8,2.6,5.8,5.8v0c0,3.2-2.6,5.8-5.8,5.8H6.8c-3.2,0-5.8-2.6-5.8-5.8v0
		C1,40.2,3.6,37.6,6.8,37.6z"/>
</g>
</svg>
