<svg id="Capa_1" data-name="Capa 1" xmlns="http://www.w3.org/2000/svg" viewBox="0 0 50 50"><defs><style>.cls-1{fill:#fff;}</style></defs><polygon class="cls-1" points="14.39 24.95 15.45 24.95 15.45 15.82 24.94 15.82 24.94 14.77 14.39 14.77 14.39 24.95"/><polygon class="cls-1" points="34.18 34.55 25.16 34.55 25.16 35.61 35.23 35.61 35.23 25.17 34.18 25.17 34.18 34.55"/><path class="cls-1" d="M35.67,21.46,33.14,20.1l5.38-8.49-.13-.13L29.9,16.86l-1.36-2.53a.53.53,0,0,0-1,.25v7.88h7.88A.53.53,0,0,0,35.67,21.46Z"/><path class="cls-1" d="M14.41,28.46l2.53,1.35-5.46,8.58.13.13,8.58-5.46,1.35,2.53a.53.53,0,0,0,1-.25V27.46H14.66A.53.53,0,0,0,14.41,28.46Z"/></svg>