<svg id="Capa_1" data-name="Capa 1" xmlns="http://www.w3.org/2000/svg" viewBox="0 0 50 50"><defs><style>.cls-1{fill:#fff;}.cls-2{fill:none;stroke:#fff;stroke-miterlimit:10;stroke-width:2px;}</style></defs><path class="cls-1" d="M25,9.5a11,11,0,0,1,6.44,19.94,7.21,7.21,0,0,0-2.94,5.87V37A3.5,3.5,0,0,1,25,40.5h-.19a3.71,3.71,0,0,1-3.31-3.8V35.32a7.23,7.23,0,0,0-3-5.89,11,11,0,0,1,.27-18A11.17,11.17,0,0,1,25,9.5m0-2a13.14,13.14,0,0,0-7.28,2.22,13,13,0,0,0-.34,21.33,5.24,5.24,0,0,1,2.12,4.27v1.37a5.7,5.7,0,0,0,5.2,5.8H25a5.5,5.5,0,0,0,5.5-5.5V35.31a5.19,5.19,0,0,1,2.11-4.25A13,13,0,0,0,25,7.5Z"/><line class="cls-2" x1="20.02" y1="34.71" x2="30.01" y2="34.71"/><line class="cls-2" x1="21.02" y1="38.38" x2="29.01" y2="38.38"/></svg>