<svg id="Capa_1" data-name="Capa 1" xmlns="http://www.w3.org/2000/svg" viewBox="0 0 50 50"><defs><style>.cls-1{fill:#fff;}</style></defs><path class="cls-1" d="M43,12.39l-1.76-1.76a1.15,1.15,0,0,0-1.61,0l-1.12,1.12-.48.48-2.44,2.45v0H33V13.13H14.56v25h3.07V39.7H36V20.92l5.33-5.33.48-.48L43,14A1.15,1.15,0,0,0,43,12.39ZM35,15.17,33,17.26V15.17Zm-20,22.49v-24H32.45v4.13l-1.28,1.28V19H16.35v.77H30.44l-.3.31a1.1,1.1,0,0,0-.29,1.08L28.8,23.78a7.94,7.94,0,0,0-5-2,6.9,6.9,0,1,0,6.9,6.9,7.09,7.09,0,0,0-1-3.87l2.76-1.11h0V37.66H15.07ZM29.19,25a6.75,6.75,0,0,1,1,3.69,6.39,6.39,0,1,1-6.39-6.38,7.07,7.07,0,0,1,4.84,2l-.47,1.17Zm1.11-3.17,1.43,1.43-2.38.95Zm5.21,17.34H18.14v-1H33V23.74a1.08,1.08,0,0,0,.54-.3l2-2ZM33,23a.46.46,0,0,1-.65,0L30.62,21.2a.45.45,0,0,1,0-.64l7.84-7.85,2.41,2.4Zm9.45-9.44-1.12,1.11L39,12.23l1.11-1.12a.46.46,0,0,1,.65,0l1.76,1.76A.48.48,0,0,1,42.47,13.52Z"/><polygon class="cls-1" points="24.01 24.94 23.5 24.94 23.5 28.46 19.98 28.46 19.98 28.97 23.5 28.97 23.5 32.49 24.01 32.49 24.01 28.97 27.53 28.97 27.53 28.46 24.01 28.46 24.01 24.94"/><rect class="cls-1" x="16.35" y="14.92" width="14.82" height="1.53"/><rect class="cls-1" x="16.35" y="17.47" width="14.82" height="0.77"/></svg>