<svg id="Capa_1" data-name="Capa 1" xmlns="http://www.w3.org/2000/svg" viewBox="0 0 50 50"><defs><style>.cls-1{fill:#fff;}</style></defs><path class="cls-1" d="M23.48,12.68h0l-.05,0h0l0,0-.06,0-.1.08-.06,0-.05.06a2.31,2.31,0,0,0-.18.23l-.07.14,0,.07,0,.07-.06.15c0,.05,0,.11-.05.16s-.07.21-.09.32l0,.17a.9.9,0,0,0,0,.16l-.05.34c0,.11,0,.23,0,.34l0,.17v.69c0,.06,0,.11,0,.16a6.2,6.2,0,0,0,.24,1.33c.13.44.28.88.45,1.31s.36.85.56,1.27c.4.84.84,1.65,1.32,2.45S26,24,26.5,24.77a24.21,24.21,0,0,0,1.77,2.14,15.7,15.7,0,0,0,2,1.89,10.22,10.22,0,0,0,2.33,1.38,7.6,7.6,0,0,0,1.26.39,6.17,6.17,0,0,0,1.27.14h.45l.14,0,.13,0,.13,0,.12,0,.06,0,.06,0a1.1,1.1,0,0,0,.37-.22.6.6,0,0,0,.18-.24s0-.07,0-.1,0,0,0,0v0a.22.22,0,0,0,0-.08.76.76,0,0,0,0-.15.72.72,0,0,0,0-.19,1,1,0,0,0-.28-.42,1.74,1.74,0,0,0-.52-.34,5.78,5.78,0,0,0-1.28-.39,12,12,0,0,0-1.36-.16l-.7,0c-.23,0-.45,0-.68,0-.46,0-.93.07-1.39.13-.92.12-1.84.29-2.76.47l-1.37.29-1.37.31-1.37.32q-.67.16-1.35.39a35.35,35.35,0,0,0-5.19,2.08,18.74,18.74,0,0,0-2.38,1.39,9.66,9.66,0,0,0-1,.84,4.64,4.64,0,0,0-.82,1,2.84,2.84,0,0,0-.25.53,2.56,2.56,0,0,0-.1.54.43.43,0,0,0,0,.16.4.4,0,0,0,.09.17,1.25,1.25,0,0,0,.43.33,2,2,0,0,0,.6.16H14l.13,0a.88.88,0,0,0,.15-.05,3,3,0,0,0,.56-.29,6.54,6.54,0,0,0,.52-.4,14,14,0,0,0,1.82-2c.28-.36.56-.72.83-1.09s.53-.74.78-1.12a34.58,34.58,0,0,0,2.71-4.78c.2-.41.39-.83.56-1.25s.36-.84.53-1.27c.34-.84.66-1.7.95-2.57s.52-1.75.72-2.65c.1-.44.19-.89.26-1.34s.15-.91.2-1.36.1-.91.13-1.37l0-.34v-.17c0-.06,0-.11,0-.16,0-.21,0-.42,0-.62a2.55,2.55,0,0,0-.36-1.14,1.17,1.17,0,0,0-.41-.39.81.81,0,0,0-.27-.11A.88.88,0,0,0,23.48,12.68Zm0-.55.41,0a2.07,2.07,0,0,1,.4.13,2,2,0,0,1,.68.48,3.27,3.27,0,0,1,.78,1.39l.09.39c0,.13,0,.26,0,.39a1.21,1.21,0,0,1,0,.19v.55c0,.48,0,1,0,1.44a28.32,28.32,0,0,1-.9,5.7c-.24.93-.53,1.85-.86,2.75A24.91,24.91,0,0,1,23,28.21c-.44.86-.9,1.7-1.4,2.52A27.68,27.68,0,0,1,20,33.11c-.29.39-.59.76-.91,1.13a14.11,14.11,0,0,1-1,1.07,13.57,13.57,0,0,1-2.29,1.82,5.43,5.43,0,0,1-1.37.66l-.19,0-.21,0H13.6a4.19,4.19,0,0,1-.77-.15,2,2,0,0,1-.77-.37,1.09,1.09,0,0,1-.33-.4,1.34,1.34,0,0,1-.14-.52,2.35,2.35,0,0,1,.13-.84,4.26,4.26,0,0,1,.37-.74,5.32,5.32,0,0,1,1-1.13,9.68,9.68,0,0,1,1.19-.86,18.6,18.6,0,0,1,2.56-1.29c.44-.18.88-.36,1.33-.52l1.34-.46c.89-.3,1.79-.58,2.7-.83l1.36-.39L25,29c.46-.12.91-.24,1.37-.34l1.38-.31,1.39-.26c.46-.08.93-.16,1.4-.22s.94-.13,1.41-.17c.24,0,.48,0,.72,0s.48,0,.72,0c.47,0,.95,0,1.43.07a9.73,9.73,0,0,1,1.47.23c.24.07.5.14.76.23a2.47,2.47,0,0,1,.81.46,1.53,1.53,0,0,1,.18.18l.09.11.07.11c.05.08.09.17.13.25a.65.65,0,0,1,0,.13.74.74,0,0,1,0,.14,1.26,1.26,0,0,1,0,.27s0,.09,0,.13,0,.1,0,.15a1,1,0,0,1,0,.3,2.27,2.27,0,0,1-.09.28,2.15,2.15,0,0,1-.66.86,2.81,2.81,0,0,1-.86.44,3.07,3.07,0,0,1-.88.15h-.42l-.39,0a6.88,6.88,0,0,1-1.5-.38,8.87,8.87,0,0,1-1.36-.63,14.47,14.47,0,0,1-2.36-1.7,24.23,24.23,0,0,1-2-2A26.61,26.61,0,0,1,26,25.14c-.56-.77-1.08-1.56-1.56-2.38a27.37,27.37,0,0,1-1.31-2.52,18.33,18.33,0,0,1-1-2.68,6.89,6.89,0,0,1-.25-1.44,1.2,1.2,0,0,1,0-.19v-.54c0-.12,0-.24,0-.36l0-.36a5.79,5.79,0,0,1,.34-1.44l0-.08,0-.09.09-.18a1.78,1.78,0,0,1,.24-.32.27.27,0,0,1,.07-.08l.08-.07a1.18,1.18,0,0,1,.18-.13.53.53,0,0,1,.1-.06l.05,0,.06,0,.12,0h.14Z"/></svg>