<svg id="Capa_1" data-name="Capa 1" xmlns="http://www.w3.org/2000/svg" viewBox="0 0 50 50"><defs><style>.cls-1{fill:#fff;}</style></defs><path class="cls-1" d="M23.33,11.49h-.14l-.06,0a.94.94,0,0,0-.12.09l-.06,0-.05.06a2.94,2.94,0,0,0-.2.26l-.08.15,0,.08,0,.08-.07.16-.06.18a3.58,3.58,0,0,0-.09.35l0,.18a1.13,1.13,0,0,0,0,.18l-.06.37,0,.37,0,.19c0,.06,0,.13,0,.19v.57a1.09,1.09,0,0,0,0,.18,6.7,6.7,0,0,0,.26,1.45c.14.48.31,1,.5,1.43s.39.94.61,1.4c.43.91.92,1.81,1.44,2.68s1.09,1.73,1.69,2.55a29.15,29.15,0,0,0,1.94,2.35,18,18,0,0,0,2.22,2.06,10.75,10.75,0,0,0,2.56,1.52,7.6,7.6,0,0,0,1.38.43,6.55,6.55,0,0,0,1.38.15h.34l.16,0h.15l.15,0,.14,0,.14,0,.06,0,.06,0a1.24,1.24,0,0,0,.41-.25.65.65,0,0,0,.2-.27.43.43,0,0,0,0-.11v-.16c0-.05,0-.11,0-.16a.79.79,0,0,0,0-.2,1.27,1.27,0,0,0-.31-.47,2,2,0,0,0-.57-.37,6.34,6.34,0,0,0-1.4-.43,12.52,12.52,0,0,0-1.5-.17l-.76,0c-.25,0-.5,0-.75,0-.51,0-1,.08-1.52.15-1,.13-2,.31-3,.52l-1.5.31-1.5.34c-.5.11-1,.22-1.5.35s-1,.27-1.48.42a39.73,39.73,0,0,0-5.69,2.28,21,21,0,0,0-2.61,1.53,11.72,11.72,0,0,0-1.16.92,5.62,5.62,0,0,0-.9,1.07,2.76,2.76,0,0,0-.27.58,2.45,2.45,0,0,0-.11.59.49.49,0,0,0,0,.17,1.07,1.07,0,0,0,.09.19,1.32,1.32,0,0,0,.48.36,1.85,1.85,0,0,0,.66.18h.31l.15,0,.16,0A3.24,3.24,0,0,0,13.8,38c.2-.14.39-.29.58-.45a15.59,15.59,0,0,0,2-2.21c.31-.39.61-.79.91-1.19s.58-.82.86-1.23a38.14,38.14,0,0,0,3-5.24c.21-.45.42-.91.61-1.37l.58-1.39c.38-.93.73-1.87,1-2.82s.58-1.93.79-2.9c.11-.49.21-1,.29-1.48s.16-1,.22-1.49.1-1,.14-1.5l0-.38v-.18a1,1,0,0,0,0-.17,5.31,5.31,0,0,0,0-.69,2.68,2.68,0,0,0-.4-1.25,1.24,1.24,0,0,0-.45-.43,1,1,0,0,0-.28-.11A1.75,1.75,0,0,0,23.33,11.49Zm0-.6a2.25,2.25,0,0,1,.44,0,2.23,2.23,0,0,1,.44.13,2.33,2.33,0,0,1,.75.53,3.63,3.63,0,0,1,.85,1.53c0,.14.07.28.1.42s.05.29.06.43,0,.14,0,.21v.6c0,.52,0,1.05,0,1.58a30.13,30.13,0,0,1-1,6.25,27.08,27.08,0,0,1-.95,3,27.58,27.58,0,0,1-1.28,2.89c-.47.94-1,1.86-1.53,2.76a30.94,30.94,0,0,1-1.78,2.62q-.46.63-1,1.23c-.34.4-.7.8-1.08,1.17a15.23,15.23,0,0,1-2.5,2A6.58,6.58,0,0,1,13.4,39l-.21,0-.23,0h-.24l-.22,0a4.12,4.12,0,0,1-.84-.15,2.3,2.3,0,0,1-.85-.41,1.38,1.38,0,0,1-.36-.43,1.51,1.51,0,0,1-.15-.58,2.67,2.67,0,0,1,.15-.93,4.24,4.24,0,0,1,.39-.8A6.12,6.12,0,0,1,12,34.55a10.61,10.61,0,0,1,1.31-.95,21.7,21.7,0,0,1,2.81-1.41c.48-.2,1-.39,1.45-.57L19,31.11c1-.32,2-.62,3-.9l1.49-.43c.49-.15,1-.3,1.49-.43s1-.27,1.5-.38L28,28.63l1.52-.29c.51-.09,1-.17,1.54-.24s1-.14,1.55-.19l.79,0h.78c.52,0,1,0,1.57.08a10.14,10.14,0,0,1,1.61.25,8,8,0,0,1,.84.26A2.87,2.87,0,0,1,39,29a2,2,0,0,1,.2.21l.1.11.08.13a1.74,1.74,0,0,1,.14.27l0,.15c0,.05,0,.09,0,.14a1.54,1.54,0,0,1,0,.3.76.76,0,0,1,0,.15.86.86,0,0,1,0,.16,1.88,1.88,0,0,1,0,.33,1.42,1.42,0,0,1,0,.16.88.88,0,0,1-.05.15,2.41,2.41,0,0,1-.73.94,3,3,0,0,1-.94.49,3.64,3.64,0,0,1-1,.16,1.92,1.92,0,0,1-.24,0h-.22l-.43,0a8,8,0,0,1-1.64-.41,9.24,9.24,0,0,1-1.49-.7,16.78,16.78,0,0,1-2.6-1.86,25.84,25.84,0,0,1-2.24-2.2,28.52,28.52,0,0,1-2-2.43c-.6-.84-1.18-1.71-1.7-2.61a29,29,0,0,1-1.45-2.76,21.05,21.05,0,0,1-1.08-2.94,8.15,8.15,0,0,1-.27-1.58,1.47,1.47,0,0,1,0-.21v-.59c0-.13,0-.26,0-.39s0-.26,0-.39A5.94,5.94,0,0,1,22,12.1l0-.1.05-.09.1-.19a1.83,1.83,0,0,1,.26-.36l.07-.09.09-.08.2-.14.11-.06L23,11l.06,0a.5.5,0,0,1,.13,0l.07,0Z"/></svg>