<svg id="Capa_1" data-name="Capa 1" xmlns="http://www.w3.org/2000/svg" viewBox="0 0 50 50"><defs><style>.cls-1{fill:#fff;}.cls-2,.cls-3{fill:none;stroke:#fff;stroke-miterlimit:10;stroke-width:1.06px;}.cls-2{stroke-linecap:round;}</style></defs><path class="cls-1" d="M33.26,28.93a4.56,4.56,0,1,1,4.56-4.56A4.56,4.56,0,0,1,33.26,28.93ZM39,28.11l-.8-.8a5.78,5.78,0,1,0-5,2.84,5.82,5.82,0,0,0,2.93-.8l.8.8a1.45,1.45,0,1,0,2-2Z"/><line class="cls-2" x1="30.37" y1="22.43" x2="36.15" y2="22.43"/><line class="cls-2" x1="30.37" y1="24.37" x2="36.15" y2="24.37"/><line class="cls-2" x1="30.37" y1="26.31" x2="36.15" y2="26.31"/><path class="cls-3" d="M33.26,30.15v5.2a.58.58,0,0,1-.57.58H16.5a.58.58,0,0,1-.58-.58v-22a.58.58,0,0,1,.58-.58H32.69a.58.58,0,0,1,.57.58v5.2"/></svg>