<svg id="Capa_1" data-name="Capa 1" xmlns="http://www.w3.org/2000/svg" viewBox="0 0 50 50"><defs><style>.cls-1,.cls-3{fill:none;stroke:#fff;stroke-linecap:round;stroke-miterlimit:10;}.cls-1{stroke-width:1.06px;}.cls-2{fill:#fff;}.cls-3{stroke-width:1.49px;}</style></defs><path class="cls-1" d="M19,22,21.51,39.1a1.05,1.05,0,0,0,1,.9h8.73a1,1,0,0,0,1-.9L34.83,22Z"/><rect class="cls-1" x="20.87" y="14.72" width="16.88" height="2.42" rx="0.53" transform="translate(15.99 -14.65) rotate(37.94)"/><rect class="cls-1" x="26.85" y="13.7" width="7.29" height="1.43" rx="0.53" transform="translate(15.3 -15.7) rotate(37.94)"/><rect class="cls-2" x="26.26" y="25.19" width="1.32" height="11.65" rx="0.53"/><path class="cls-2" d="M29.69,36.84h-.27a.53.53,0,0,1-.53-.53l1.32-10.6a.52.52,0,0,1,.53-.52H31a.52.52,0,0,1,.53.52l-1.32,10.6A.52.52,0,0,1,29.69,36.84Z"/><path class="cls-2" d="M24.1,36.84h.27a.52.52,0,0,0,.52-.53l-1.31-10.6a.52.52,0,0,0-.53-.52h-.26a.52.52,0,0,0-.53.52l1.32,10.6A.52.52,0,0,0,24.1,36.84Z"/><path class="cls-3" d="M13.73,17.21c5.44-8.14,10.55,2,10.55,2"/><path class="cls-2" d="M16.06,18.88l-3.94.65-.65-4a.53.53,0,0,1,.83-.51l4,2.86A.53.53,0,0,1,16.06,18.88Z"/></svg>