<svg id="Capa_1" data-name="Capa 1" xmlns="http://www.w3.org/2000/svg" viewBox="0 0 50 50"><defs><style>.cls-1,.cls-2,.cls-3{fill:none;stroke:#fff;stroke-linecap:round;stroke-miterlimit:10;}.cls-1{stroke-width:1.06px;}.cls-2{stroke-width:0.71px;}.cls-3{stroke-width:1.49px;}.cls-4{fill:#fff;}</style></defs><path class="cls-1" d="M19.2,22,21.7,39.1a1.06,1.06,0,0,0,1.05.9h8.73a1.05,1.05,0,0,0,1-.9L35,22Z"/><rect class="cls-1" x="21.07" y="14.72" width="16.88" height="2.42" rx="0.53" transform="translate(16.03 -14.77) rotate(37.94)"/><rect class="cls-1" x="27.04" y="13.7" width="7.29" height="1.43" rx="0.53" transform="translate(15.35 -15.82) rotate(37.94)"/><rect class="cls-2" x="26.45" y="25.19" width="1.32" height="11.65" rx="0.53"/><path class="cls-2" d="M29.88,36.84h-.26a.53.53,0,0,1-.53-.53l1.32-10.6a.52.52,0,0,1,.53-.52h.26a.52.52,0,0,1,.53.52l-1.32,10.6A.53.53,0,0,1,29.88,36.84Z"/><path class="cls-2" d="M24.3,36.84h.26a.53.53,0,0,0,.53-.53l-1.32-10.6a.52.52,0,0,0-.53-.52H23a.52.52,0,0,0-.53.52l1.32,10.6A.53.53,0,0,0,24.3,36.84Z"/><path class="cls-3" d="M13.92,17.21c5.44-8.14,10.55,2,10.55,2"/><path class="cls-4" d="M16.26,18.88l-4,.65-.65-4a.53.53,0,0,1,.83-.51l4,2.86A.53.53,0,0,1,16.26,18.88Z"/></svg>