<svg id="Capa_1" data-name="Capa 1" xmlns="http://www.w3.org/2000/svg" viewBox="0 0 50 50"><defs><style>.cls-1{fill:#fff;}</style></defs><path class="cls-1" d="M40,27a3.34,3.34,0,0,1-3.33,3.33H32.48a3,3,0,0,0,0-2h4.18a1.35,1.35,0,1,0,0-2.69H34.2a1,1,0,0,1-.8-.41,1,1,0,0,1-.15-.88,1.69,1.69,0,0,0,.1-.58,1.89,1.89,0,0,0-3.21-1.35,1,1,0,0,1-1.24.11,1,1,0,0,1-.37-1.19,1.79,1.79,0,0,0,.15-.72,1.89,1.89,0,0,0-1.89-1.88,1.84,1.84,0,0,0-1.4.63,1,1,0,0,1-1.65-.3,3.68,3.68,0,0,0-7.08,1,1,1,0,0,1-.36.68,1,1,0,0,1-.73.21h-.21A1.88,1.88,0,0,0,13.89,24a1,1,0,0,1-.68,1.61,1.34,1.34,0,0,0,.11,2.68H17.5a3,3,0,0,0,0,2H13.32a3.32,3.32,0,0,1-1.62-6.22,3.7,3.7,0,0,1-.21-1.23A3.86,3.86,0,0,1,14.84,19,5.66,5.66,0,0,1,25,17.21,3.85,3.85,0,0,1,30.6,20a4.12,4.12,0,0,1,.86-.1,3.86,3.86,0,0,1,3.86,3.76h1.35A3.33,3.33,0,0,1,40,27Z"/><path class="cls-1" d="M19.42,29.69a1,1,0,0,0,.91.61H24v3.19a1,1,0,1,0,2,0V30.3h3.68a1,1,0,0,0,.91-.61,1,1,0,0,0-.21-1.07L25.7,23.94a1,1,0,0,0-1.4,0l-4.67,4.68A1,1,0,0,0,19.42,29.69ZM25,26l2.28,2.29H22.72Z"/></svg>