<svg id="Capa_1" data-name="Capa 1" xmlns="http://www.w3.org/2000/svg" viewBox="0 0 50 50"><defs><style>.cls-1,.cls-2{fill:none;stroke:#fff;stroke-miterlimit:10;stroke-width:0.75px;}.cls-2{stroke-linecap:round;}</style></defs><path class="cls-1" d="M35.66,14V31.69H33.39a1.09,1.09,0,0,0-.69.26l-2.07,1.79a1.1,1.1,0,0,1-.7.26H20.07a1.1,1.1,0,0,1-.7-.26L17.3,32a1.09,1.09,0,0,0-.69-.26H14.27V14a1.07,1.07,0,0,1,1.07-1.07H34.6A1.07,1.07,0,0,1,35.66,14Z"/><path class="cls-1" d="M37.26,32.76V36a1.06,1.06,0,0,1-1.06,1.06H13.81A1.06,1.06,0,0,1,12.74,36V32.76a1.07,1.07,0,0,1,1.07-1.07h2.8a1.09,1.09,0,0,1,.69.26l2.07,1.79a1.1,1.1,0,0,0,.7.26h9.86a1.1,1.1,0,0,0,.7-.26L32.7,32a1.09,1.09,0,0,1,.69-.26H36.2A1.07,1.07,0,0,1,37.26,32.76Z"/><path class="cls-1" d="M35.66,26.26H34.48a1,1,0,0,0-1,.81l-.13.53a1.06,1.06,0,0,0,1,1.32h1.31Z"/><path class="cls-1" d="M14.6,26.26h1.09a1.07,1.07,0,0,1,1.06.91l.08.53a1.07,1.07,0,0,1-1.06,1.22H14.6Z"/><rect class="cls-1" x="17" y="15.56" width="15.99" height="8.03" rx="1.07"/><path class="cls-1" d="M31.36,26.33l-1.52,4.83-.05,0H20.21l-.05,0-1.52-4.83s0-.07.05-.07H31.31S31.38,26.3,31.36,26.33Z"/><line class="cls-2" x1="21.77" y1="27.97" x2="28.23" y2="27.97"/><line class="cls-2" x1="22.34" y1="29.61" x2="27.67" y2="29.61"/><path class="cls-1" d="M35.66,18.26h.5a1,1,0,0,1,1,1v4.33a0,0,0,0,1,0,0h-1.5a0,0,0,0,1,0,0V18.26A0,0,0,0,1,35.66,18.26Z"/><path class="cls-1" d="M13.74,18.26h.5a0,0,0,0,1,0,0v5.33a0,0,0,0,1,0,0h-1.5a0,0,0,0,1,0,0V19.26A1,1,0,0,1,13.74,18.26Z"/></svg>