<svg id="Capa_1" data-name="Capa 1" xmlns="http://www.w3.org/2000/svg" viewBox="0 0 50 50"><path d="M42.28,25.3l-1.81-6.11a.93.93,0,0,0-.89-.66h-31a.69.69,0,0,0-.69.62L7.5,23.48V30l1.43.44,1,.31h0l1.4.43h5.77a2.26,2.26,0,0,1-.17-.43h0a2.37,2.37,0,1,1,4.53,0h0a3.25,3.25,0,0,1-.18.43h14a3.25,3.25,0,0,1-.18-.43h0a2.4,2.4,0,0,1,.4-2.15l.2-.22a2.37,2.37,0,0,1,3.93,2.37,3.25,3.25,0,0,1-.18.43h2.25l.76-.61ZM12.54,23.57a.55.55,0,0,1-.56.55H9.48a.55.55,0,0,1-.55-.55v-3.1a.55.55,0,0,1,.55-.55H12a.55.55,0,0,1,.55.55Zm3.58,1v2.58a.54.54,0,0,1-.54.54h-1.9a.54.54,0,0,1-.54-.54V21a.54.54,0,0,1,.54-.54h1.9a.54.54,0,0,1,.54.54Zm4-.95a.58.58,0,0,1-.58.58H16.46v-4.3h3.06a.58.58,0,0,1,.58.58Zm7.82,0a.52.52,0,0,1-.52.52H20.9a.52.52,0,0,1-.52-.52V20.44a.52.52,0,0,1,.52-.53h6.5a.52.52,0,0,1,.52.53Zm3.77.6h-3a.57.57,0,0,1-.56-.57V20.49a.57.57,0,0,1,.56-.57h3Zm3.35.37v2.58a.54.54,0,0,1-.54.54H32.6a.54.54,0,0,1-.54-.54V21a.54.54,0,0,1,.54-.54h1.9A.54.54,0,0,1,35,21Zm5.21.14a.35.35,0,0,1-.18.3l-.06,0h-.18l-2.08-.48-1.46-.33a.69.69,0,0,1-.53-.67V20.44a.52.52,0,0,1,.52-.52h2.58a.51.51,0,0,1,.5.4l.87,4.26h0Z"/><path d="M37.41,31.47A1.45,1.45,0,1,1,38.86,30,1.45,1.45,0,0,1,37.41,31.47Z"/><path d="M19.22,31.47A1.45,1.45,0,1,1,20.67,30,1.45,1.45,0,0,1,19.22,31.47Z"/></svg>