<svg id="Capa_1" data-name="Capa 1" xmlns="http://www.w3.org/2000/svg" viewBox="0 0 50 50"><defs><style>.cls-1{fill:none;stroke:#fff;stroke-miterlimit:10;stroke-width:0.73px;}</style></defs><circle class="cls-1" cx="16.34" cy="31.03" r="1.72"/><circle class="cls-1" cx="30.13" cy="31.03" r="1.72"/><path class="cls-1" d="M38.75,17.93v9.66h-.87V31h-5.3a2.46,2.46,0,0,0-.72-1.73,2.42,2.42,0,0,0-1.73-.72A2.46,2.46,0,0,0,27.67,31H18.79a2.31,2.31,0,0,0,0-.37,1,1,0,0,0-.05-.24L18.55,30l-.11-.21-.13-.19-.08-.1a1.29,1.29,0,0,0-.16-.17,2.72,2.72,0,0,0-.42-.34l-.08-.05a2.44,2.44,0,0,0-.28-.14,2.53,2.53,0,0,0-.36-.12l-.22,0a2.31,2.31,0,0,0-.37,0A2.46,2.46,0,0,0,13.88,31H12V27.59h-.87V24.14l3.26-6.52a.71.71,0,0,1,.62-.38h23A.69.69,0,0,1,38.75,17.93Z"/><rect class="cls-1" x="37.88" y="27.59" width="1.72" height="3.45"/><rect class="cls-1" x="10.3" y="27.59" width="1.72" height="3.45"/><path class="cls-1" d="M13.7,24.14h3.67a.69.69,0,0,0,.69-.69V18.91a.69.69,0,0,0-.69-.69H15.78a.69.69,0,0,0-.62.4l-2.09,4.54A.69.69,0,0,0,13.7,24.14Z"/><rect class="cls-1" x="19.52" y="18.22" width="4.95" height="5.92" rx="0.69"/><rect class="cls-1" x="25.93" y="18.22" width="4.95" height="5.92" rx="0.69"/><rect class="cls-1" x="32.34" y="18.22" width="4.95" height="5.92" rx="0.69"/></svg>