<svg id="Capa_1" data-name="Capa 1" xmlns="http://www.w3.org/2000/svg" viewBox="0 0 50 50"><defs><style>.cls-1{fill:#fff;}</style></defs><path class="cls-1" d="M13.83,16.12a1,1,0,0,0-.68,1.19l.26.88a1,1,0,0,0,1.18.68l21.58-5.79a1,1,0,0,0,.69-1.18L36.62,11a1,1,0,0,0-1.18-.69l-8.5,2.23-.31-1.17a1,1,0,0,0-1.18-.68l-2.84.76a1,1,0,0,0-.68,1.19l.31,1.16Z"/><path class="cls-1" d="M35.82,20.4H14.18a1,1,0,0,0-.94,1.2L17.58,39a1,1,0,0,0,.94.73H31.35a1,1,0,0,0,.93-.72l4.48-17.37A1,1,0,0,0,35.82,20.4ZM20.3,37.53a1,1,0,0,1-1.16-.72L16.32,24.59a1,1,0,1,1,1.88-.44L21,36.38A1,1,0,0,1,20.3,37.53ZM26,36.32a1,1,0,1,1-1.93,0V23.78a1,1,0,0,1,1.93,0Zm7.6-11.73L30.74,36.81a1,1,0,0,1-1.88-.43l2.83-12.23a1,1,0,1,1,1.87.44Z"/></svg>