<svg id="Capa_1" data-name="Capa 1" xmlns="http://www.w3.org/2000/svg" viewBox="0 0 50 50"><defs><style>.cls-1,.cls-2{fill:none;stroke:#fff;stroke-linecap:round;stroke-miterlimit:10;}.cls-1{stroke-width:1.06px;}.cls-2{stroke-width:0.71px;}</style></defs><path class="cls-1" d="M15.09,16.15l3.13,21.39a1.33,1.33,0,0,0,1.31,1.13H30.47a1.33,1.33,0,0,0,1.31-1.13l3.13-21.39Z"/><rect class="cls-1" x="14.42" y="13.11" width="21.15" height="3.03" rx="0.66"/><rect class="cls-1" x="20.44" y="11.33" width="9.13" height="1.79" rx="0.66"/><rect class="cls-2" x="24.17" y="20.11" width="1.65" height="14.6" rx="0.66"/><path class="cls-2" d="M28.47,34.71h-.33a.66.66,0,0,1-.66-.66l1.65-13.28a.67.67,0,0,1,.66-.66h.33a.66.66,0,0,1,.66.66L29.13,34.05A.66.66,0,0,1,28.47,34.71Z"/><path class="cls-2" d="M21.47,34.71h.34a.67.67,0,0,0,.66-.66L20.81,20.77a.66.66,0,0,0-.66-.66h-.33a.67.67,0,0,0-.66.66l1.65,13.28A.67.67,0,0,0,21.47,34.71Z"/></svg>