<svg id="Capa_1" data-name="Capa 1" xmlns="http://www.w3.org/2000/svg" viewBox="0 0 50 50"><defs><style>.cls-1{fill:none;stroke:#fff;stroke-miterlimit:10;stroke-width:1.06px;}</style></defs><circle class="cls-1" cx="15.42" cy="30.95" r="1.81"/><path class="cls-1" d="M38.91,27.34V31H32.45a2.57,2.57,0,0,0-5.14,0H18a2.56,2.56,0,0,0,0-.39,1.11,1.11,0,0,0-.05-.25,2.53,2.53,0,0,0-.12-.36,2.59,2.59,0,0,0-.17-.33,2.23,2.23,0,0,0-.38-.48,2.8,2.8,0,0,0-.38-.32l-.21-.13a2.64,2.64,0,0,0-.61-.23l-.23-.05a2.57,2.57,0,0,0-3,2.54H10V27.34l3.61-7.23h7.23v7.23Z"/><circle class="cls-1" cx="29.88" cy="30.95" r="1.81"/><rect class="cls-1" x="38.01" y="27.34" width="1.81" height="3.61"/><path class="cls-1" d="M14,24.73h4.33A.73.73,0,0,0,19,24V22.35a.73.73,0,0,0-.73-.72H14.84a.72.72,0,0,0-.65.42l-.87,1.66A.72.72,0,0,0,14,24.73Z"/><rect class="cls-1" x="22.37" y="16.5" width="16.54" height="9.31"/></svg>