<svg id="Capa_1" data-name="Capa 1" xmlns="http://www.w3.org/2000/svg" viewBox="0 0 50 50"><defs><style>.cls-1{fill:none;stroke:#fff;stroke-miterlimit:10;stroke-width:1.25px;}</style></defs><circle class="cls-1" cx="15.51" cy="30.55" r="1.81"/><path class="cls-1" d="M39,26.93v3.62H32.54a2.6,2.6,0,0,0-.75-1.82,2.57,2.57,0,0,0-4.39,1.82H18.09a2.56,2.56,0,0,0,0-.39,1.83,1.83,0,0,0-.06-.25,1.9,1.9,0,0,0-.12-.36,1.54,1.54,0,0,0-.17-.34,2.43,2.43,0,0,0-.38-.48,2.24,2.24,0,0,0-.38-.31,1.2,1.2,0,0,0-.21-.13,2.28,2.28,0,0,0-.61-.24l-.23,0a2.38,2.38,0,0,0-.39,0,2.58,2.58,0,0,0-2.57,2.57H10.09V26.93l3.61-7.22h7.23v7.22Z"/><circle class="cls-1" cx="29.97" cy="30.55" r="1.81"/><rect class="cls-1" x="38.1" y="26.93" width="1.81" height="3.61"/><path class="cls-1" d="M14.07,24.33H18.4a.73.73,0,0,0,.73-.72V22a.73.73,0,0,0-.73-.72H14.93a.71.71,0,0,0-.65.42l-.87,1.65A.73.73,0,0,0,14.07,24.33Z"/><rect class="cls-1" x="22.46" y="16.09" width="16.54" height="9.31"/></svg>