<svg id="Capa_1" data-name="Capa 1" xmlns="http://www.w3.org/2000/svg" viewBox="0 0 50 50"><defs><style>.cls-1,.cls-2{fill:none;stroke:#fff;stroke-miterlimit:10;stroke-width:0.75px;}.cls-2{stroke-linecap:round;}</style></defs><path class="cls-1" d="M33.51,21.54V35.66H31.7a.83.83,0,0,0-.56.21L29.5,37.29a.9.9,0,0,1-.56.21H21.06a.86.86,0,0,1-.55-.21l-1.65-1.42a.83.83,0,0,0-.56-.21H16.44V21.54a.86.86,0,0,1,.85-.86H32.66A.86.86,0,0,1,33.51,21.54Z"/><path class="cls-1" d="M34.78,36.51V39.1a.85.85,0,0,1-.85.85H16.07a.85.85,0,0,1-.85-.85V36.51a.85.85,0,0,1,.85-.85H18.3a.83.83,0,0,1,.56.21l1.65,1.42a.86.86,0,0,0,.55.21h7.88a.9.9,0,0,0,.56-.21l1.64-1.42a.83.83,0,0,1,.56-.21h2.23A.85.85,0,0,1,34.78,36.51Z"/><path class="cls-1" d="M33.51,31.32h-.94a.86.86,0,0,0-.83.65l-.1.43a.85.85,0,0,0,.82,1.05h1Z"/><path class="cls-1" d="M16.7,31.32h.87a.85.85,0,0,1,.84.73l.07.42a.86.86,0,0,1-.85,1H16.7Z"/><rect class="cls-1" x="18.62" y="22.78" width="12.76" height="6.41" rx="0.85"/><path class="cls-1" d="M30.08,31.38l-1.22,3.86,0,0H21.18l0,0-1.22-3.86a0,0,0,0,1,0-.06H30A0,0,0,0,1,30.08,31.38Z"/><line class="cls-2" x1="22.42" y1="32.69" x2="27.58" y2="32.69"/><line class="cls-2" x1="22.87" y1="33.99" x2="27.13" y2="33.99"/><rect class="cls-1" x="33.51" y="24.94" width="1.2" height="4.25"/><rect class="cls-1" x="15.22" y="24.94" width="1.2" height="4.25"/><rect class="cls-1" x="20.75" y="10.05" width="8.51" height="10.64"/><rect class="cls-1" x="20.53" y="13.66" width="8.93" height="5.11" transform="translate(41.22 -8.78) rotate(90)"/></svg>